%FSLAX45Y45*%
G04 Gerber Fmt 4.5, Leading zero omitted, Abs format (unit mm)*
G04 Created by KiCad (PCBNEW 5.1.10) date 2022-01-16 13:45:01*
%MOMM*%
%LPD*%
G01*
G04 APERTURE LIST*
%TA.AperFunction,Profile*%
%ADD10C,0.100000*%
%TD*%
%ADD11C,0.200000*%
%ADD12C,0.300000*%
G04 APERTURE END LIST*
D10*
X2000000Y-4000000D02*
X12000000Y-4000000D01*
X12000000Y-4000000D02*
X12000000Y-12000000D01*
X2000000Y-12000000D02*
X2000000Y-4000000D01*
X12000000Y-12000000D02*
X2000000Y-12000000D01*
D11*
X3500000Y-8780000D02*
X3540000Y-8820000D01*
X3540000Y-8780000D02*
X3500000Y-8820000D01*
X3510000Y-8330000D02*
X3550000Y-8370000D01*
X3550000Y-8330000D02*
X3510000Y-8370000D01*
X3875000Y-7315000D02*
X3915000Y-7355000D01*
X3915000Y-7315000D02*
X3875000Y-7355000D01*
X3910000Y-7590000D02*
X3950000Y-7630000D01*
X3950000Y-7590000D02*
X3910000Y-7630000D01*
X4450000Y-5580000D02*
X4490000Y-5620000D01*
X4490000Y-5580000D02*
X4450000Y-5620000D01*
X4780000Y-6190000D02*
X4820000Y-6230000D01*
X4820000Y-6190000D02*
X4780000Y-6230000D01*
X4870000Y-6250000D02*
X4910000Y-6290000D01*
X4910000Y-6250000D02*
X4870000Y-6290000D01*
X4980000Y-6270000D02*
X5020000Y-6310000D01*
X5020000Y-6270000D02*
X4980000Y-6310000D01*
X5090000Y-6270000D02*
X5130000Y-6310000D01*
X5130000Y-6270000D02*
X5090000Y-6310000D01*
X5810000Y-7190000D02*
X5850000Y-7230000D01*
X5850000Y-7190000D02*
X5810000Y-7230000D01*
X7470000Y-6940000D02*
X7510000Y-6980000D01*
X7510000Y-6940000D02*
X7470000Y-6980000D01*
X7470000Y-7050000D02*
X7510000Y-7090000D01*
X7510000Y-7050000D02*
X7470000Y-7090000D01*
X7470000Y-7170000D02*
X7510000Y-7210000D01*
X7510000Y-7170000D02*
X7470000Y-7210000D01*
X7470000Y-7410000D02*
X7510000Y-7450000D01*
X7510000Y-7410000D02*
X7470000Y-7450000D01*
X7470000Y-7520000D02*
X7510000Y-7560000D01*
X7510000Y-7520000D02*
X7470000Y-7560000D01*
X7520000Y-7630000D02*
X7560000Y-7670000D01*
X7560000Y-7630000D02*
X7520000Y-7670000D01*
X7600000Y-5230000D02*
X7640000Y-5270000D01*
X7640000Y-5230000D02*
X7600000Y-5270000D01*
X7680000Y-5760000D02*
X7720000Y-5800000D01*
X7720000Y-5760000D02*
X7680000Y-5800000D01*
X8090000Y-8300000D02*
X8130000Y-8340000D01*
X8130000Y-8300000D02*
X8090000Y-8340000D01*
X8320000Y-4700000D02*
X8360000Y-4740000D01*
X8360000Y-4700000D02*
X8320000Y-4740000D01*
X8320000Y-5470000D02*
X8360000Y-5510000D01*
X8360000Y-5470000D02*
X8320000Y-5510000D01*
X8320000Y-5760000D02*
X8360000Y-5800000D01*
X8360000Y-5760000D02*
X8320000Y-5800000D01*
X8330000Y-5220000D02*
X8370000Y-5260000D01*
X8370000Y-5220000D02*
X8330000Y-5260000D01*
X8600000Y-8070000D02*
X8640000Y-8110000D01*
X8640000Y-8070000D02*
X8600000Y-8110000D01*
X8630000Y-8340000D02*
X8670000Y-8380000D01*
X8670000Y-8340000D02*
X8630000Y-8380000D01*
X8660000Y-5560000D02*
X8700000Y-5600000D01*
X8700000Y-5560000D02*
X8660000Y-5600000D01*
X8670000Y-5820000D02*
X8710000Y-5860000D01*
X8710000Y-5820000D02*
X8670000Y-5860000D01*
X8950000Y-6240000D02*
X8990000Y-6280000D01*
X8990000Y-6240000D02*
X8950000Y-6280000D01*
X9160000Y-4700000D02*
X9200000Y-4740000D01*
X9200000Y-4700000D02*
X9160000Y-4740000D01*
X9230000Y-7250000D02*
X9270000Y-7290000D01*
X9270000Y-7250000D02*
X9230000Y-7290000D01*
X9230000Y-9050000D02*
X9270000Y-9090000D01*
X9270000Y-9050000D02*
X9230000Y-9090000D01*
X9550000Y-6540000D02*
X9590000Y-6580000D01*
X9590000Y-6540000D02*
X9550000Y-6580000D01*
X10010000Y-7140000D02*
X10050000Y-7180000D01*
X10050000Y-7140000D02*
X10010000Y-7180000D01*
X10130000Y-4700000D02*
X10170000Y-4740000D01*
X10170000Y-4700000D02*
X10130000Y-4740000D01*
X4560000Y-10050000D02*
G75*
G03*
X4560000Y-10050000I-40000J0D01*
G01*
X4560000Y-10300000D02*
G75*
G03*
X4560000Y-10300000I-40000J0D01*
G01*
X5370000Y-4639000D02*
G75*
G03*
X5370000Y-4639000I-40000J0D01*
G01*
X5370000Y-4893000D02*
G75*
G03*
X5370000Y-4893000I-40000J0D01*
G01*
X5370000Y-5147000D02*
G75*
G03*
X5370000Y-5147000I-40000J0D01*
G01*
X5370000Y-5401000D02*
G75*
G03*
X5370000Y-5401000I-40000J0D01*
G01*
X5370000Y-5655000D02*
G75*
G03*
X5370000Y-5655000I-40000J0D01*
G01*
X5370000Y-5909000D02*
G75*
G03*
X5370000Y-5909000I-40000J0D01*
G01*
X5370000Y-6163000D02*
G75*
G03*
X5370000Y-6163000I-40000J0D01*
G01*
X5370000Y-6417000D02*
G75*
G03*
X5370000Y-6417000I-40000J0D01*
G01*
X5370000Y-6671000D02*
G75*
G03*
X5370000Y-6671000I-40000J0D01*
G01*
X5370000Y-6925000D02*
G75*
G03*
X5370000Y-6925000I-40000J0D01*
G01*
X5370000Y-7179000D02*
G75*
G03*
X5370000Y-7179000I-40000J0D01*
G01*
X5370000Y-7433000D02*
G75*
G03*
X5370000Y-7433000I-40000J0D01*
G01*
X5370000Y-7687000D02*
G75*
G03*
X5370000Y-7687000I-40000J0D01*
G01*
X5370000Y-7941000D02*
G75*
G03*
X5370000Y-7941000I-40000J0D01*
G01*
X5370000Y-8195000D02*
G75*
G03*
X5370000Y-8195000I-40000J0D01*
G01*
X5370000Y-8449000D02*
G75*
G03*
X5370000Y-8449000I-40000J0D01*
G01*
X5370000Y-8703000D02*
G75*
G03*
X5370000Y-8703000I-40000J0D01*
G01*
X5370000Y-8957000D02*
G75*
G03*
X5370000Y-8957000I-40000J0D01*
G01*
X5370000Y-9211000D02*
G75*
G03*
X5370000Y-9211000I-40000J0D01*
G01*
X5370000Y-9465000D02*
G75*
G03*
X5370000Y-9465000I-40000J0D01*
G01*
X5460000Y-10050000D02*
G75*
G03*
X5460000Y-10050000I-40000J0D01*
G01*
X5460000Y-10300000D02*
G75*
G03*
X5460000Y-10300000I-40000J0D01*
G01*
X6370000Y-10060000D02*
G75*
G03*
X6370000Y-10060000I-40000J0D01*
G01*
X6370000Y-10310000D02*
G75*
G03*
X6370000Y-10310000I-40000J0D01*
G01*
X7910000Y-4639000D02*
G75*
G03*
X7910000Y-4639000I-40000J0D01*
G01*
X7910000Y-4893000D02*
G75*
G03*
X7910000Y-4893000I-40000J0D01*
G01*
X7910000Y-5147000D02*
G75*
G03*
X7910000Y-5147000I-40000J0D01*
G01*
X7910000Y-5401000D02*
G75*
G03*
X7910000Y-5401000I-40000J0D01*
G01*
X7910000Y-5655000D02*
G75*
G03*
X7910000Y-5655000I-40000J0D01*
G01*
X7910000Y-5909000D02*
G75*
G03*
X7910000Y-5909000I-40000J0D01*
G01*
X7910000Y-6163000D02*
G75*
G03*
X7910000Y-6163000I-40000J0D01*
G01*
X7910000Y-6417000D02*
G75*
G03*
X7910000Y-6417000I-40000J0D01*
G01*
X7910000Y-6671000D02*
G75*
G03*
X7910000Y-6671000I-40000J0D01*
G01*
X7910000Y-6925000D02*
G75*
G03*
X7910000Y-6925000I-40000J0D01*
G01*
X7910000Y-7179000D02*
G75*
G03*
X7910000Y-7179000I-40000J0D01*
G01*
X7910000Y-7433000D02*
G75*
G03*
X7910000Y-7433000I-40000J0D01*
G01*
X7910000Y-7687000D02*
G75*
G03*
X7910000Y-7687000I-40000J0D01*
G01*
X7910000Y-7941000D02*
G75*
G03*
X7910000Y-7941000I-40000J0D01*
G01*
X7910000Y-8195000D02*
G75*
G03*
X7910000Y-8195000I-40000J0D01*
G01*
X7910000Y-8449000D02*
G75*
G03*
X7910000Y-8449000I-40000J0D01*
G01*
X7910000Y-8703000D02*
G75*
G03*
X7910000Y-8703000I-40000J0D01*
G01*
X7910000Y-8957000D02*
G75*
G03*
X7910000Y-8957000I-40000J0D01*
G01*
X7910000Y-9211000D02*
G75*
G03*
X7910000Y-9211000I-40000J0D01*
G01*
X7910000Y-9465000D02*
G75*
G03*
X7910000Y-9465000I-40000J0D01*
G01*
X8480000Y-6240000D02*
G75*
G03*
X8480000Y-6240000I-40000J0D01*
G01*
X8480000Y-6440000D02*
G75*
G03*
X8480000Y-6440000I-40000J0D01*
G01*
X8480000Y-6640000D02*
G75*
G03*
X8480000Y-6640000I-40000J0D01*
G01*
X8480000Y-6840000D02*
G75*
G03*
X8480000Y-6840000I-40000J0D01*
G01*
X9440000Y-9400000D02*
G75*
G03*
X9440000Y-9400000I-40000J0D01*
G01*
X9440000Y-9650000D02*
G75*
G03*
X9440000Y-9650000I-40000J0D01*
G01*
X9440000Y-10250000D02*
G75*
G03*
X9440000Y-10250000I-40000J0D01*
G01*
X9440000Y-10500000D02*
G75*
G03*
X9440000Y-10500000I-40000J0D01*
G01*
X10040000Y-9400000D02*
G75*
G03*
X10040000Y-9400000I-40000J0D01*
G01*
X10040000Y-9650000D02*
G75*
G03*
X10040000Y-9650000I-40000J0D01*
G01*
X10640000Y-9400000D02*
G75*
G03*
X10640000Y-9400000I-40000J0D01*
G01*
X10640000Y-9650000D02*
G75*
G03*
X10640000Y-9650000I-40000J0D01*
G01*
X2525000Y-5421000D02*
X2525000Y-5521000D01*
X2475000Y-5471000D02*
X2575000Y-5471000D01*
X2525000Y-5675000D02*
X2525000Y-5775000D01*
X2475000Y-5725000D02*
X2575000Y-5725000D01*
X2525000Y-6621000D02*
X2525000Y-6721000D01*
X2475000Y-6671000D02*
X2575000Y-6671000D01*
X2525000Y-6875000D02*
X2525000Y-6975000D01*
X2475000Y-6925000D02*
X2575000Y-6925000D01*
X2525000Y-8040000D02*
X2525000Y-8140000D01*
X2475000Y-8090000D02*
X2575000Y-8090000D01*
X2525000Y-8540000D02*
X2525000Y-8640000D01*
X2475000Y-8590000D02*
X2575000Y-8590000D01*
X2525000Y-9040000D02*
X2525000Y-9140000D01*
X2475000Y-9090000D02*
X2575000Y-9090000D01*
X2779000Y-5421000D02*
X2779000Y-5521000D01*
X2729000Y-5471000D02*
X2829000Y-5471000D01*
X2779000Y-5675000D02*
X2779000Y-5775000D01*
X2729000Y-5725000D02*
X2829000Y-5725000D01*
X2779000Y-6621000D02*
X2779000Y-6721000D01*
X2729000Y-6671000D02*
X2829000Y-6671000D01*
X2779000Y-6875000D02*
X2779000Y-6975000D01*
X2729000Y-6925000D02*
X2829000Y-6925000D01*
X2779000Y-8040000D02*
X2779000Y-8140000D01*
X2729000Y-8090000D02*
X2829000Y-8090000D01*
X2779000Y-8540000D02*
X2779000Y-8640000D01*
X2729000Y-8590000D02*
X2829000Y-8590000D01*
X2779000Y-9040000D02*
X2779000Y-9140000D01*
X2729000Y-9090000D02*
X2829000Y-9090000D01*
X3240000Y-6630000D02*
X3240000Y-6730000D01*
X3190000Y-6680000D02*
X3290000Y-6680000D01*
X3450000Y-5880000D02*
X3450000Y-5980000D01*
X3400000Y-5930000D02*
X3500000Y-5930000D01*
X3460000Y-6550000D02*
X3460000Y-6650000D01*
X3410000Y-6600000D02*
X3510000Y-6600000D01*
X3630000Y-5880000D02*
X3630000Y-5980000D01*
X3580000Y-5930000D02*
X3680000Y-5930000D01*
X3670000Y-6530000D02*
X3670000Y-6630000D01*
X3620000Y-6580000D02*
X3720000Y-6580000D01*
X3780000Y-4836000D02*
X3780000Y-4936000D01*
X3730000Y-4886000D02*
X3830000Y-4886000D01*
X3780000Y-5090000D02*
X3780000Y-5190000D01*
X3730000Y-5140000D02*
X3830000Y-5140000D01*
X3820000Y-5890000D02*
X3820000Y-5990000D01*
X3770000Y-5940000D02*
X3870000Y-5940000D01*
X4705000Y-6712500D02*
X4705000Y-6812500D01*
X4655000Y-6762500D02*
X4755000Y-6762500D01*
X4845000Y-6840000D02*
X4845000Y-6940000D01*
X4795000Y-6890000D02*
X4895000Y-6890000D01*
X9600000Y-5940000D02*
X9600000Y-6040000D01*
X9550000Y-5990000D02*
X9650000Y-5990000D01*
X9630000Y-8460000D02*
X9630000Y-8560000D01*
X9580000Y-8510000D02*
X9680000Y-8510000D01*
X9770000Y-5280000D02*
X9770000Y-5380000D01*
X9720000Y-5330000D02*
X9820000Y-5330000D01*
X9770000Y-7810000D02*
X9770000Y-7910000D01*
X9720000Y-7860000D02*
X9820000Y-7860000D01*
X9810000Y-5950000D02*
X9810000Y-6050000D01*
X9760000Y-6000000D02*
X9860000Y-6000000D01*
X9860000Y-8460000D02*
X9860000Y-8560000D01*
X9810000Y-8510000D02*
X9910000Y-8510000D01*
X9960000Y-5280000D02*
X9960000Y-5380000D01*
X9910000Y-5330000D02*
X10010000Y-5330000D01*
X10000000Y-5950000D02*
X10000000Y-6050000D01*
X9950000Y-6000000D02*
X10050000Y-6000000D01*
X10040000Y-7720000D02*
X10040000Y-7820000D01*
X9990000Y-7770000D02*
X10090000Y-7770000D01*
X10160000Y-5182400D02*
X10160000Y-5282400D01*
X10110000Y-5232400D02*
X10210000Y-5232400D01*
X10200000Y-8150000D02*
X10200000Y-8250000D01*
X10150000Y-8200000D02*
X10250000Y-8200000D01*
X10230000Y-5630000D02*
X10230000Y-5730000D01*
X10180000Y-5680000D02*
X10280000Y-5680000D01*
X10290000Y-7670000D02*
X10290000Y-7770000D01*
X10240000Y-7720000D02*
X10340000Y-7720000D01*
X10578500Y-7375000D02*
X10578500Y-7475000D01*
X10528500Y-7425000D02*
X10628500Y-7425000D01*
X10578500Y-7629000D02*
X10578500Y-7729000D01*
X10528500Y-7679000D02*
X10628500Y-7679000D01*
X10578500Y-8675000D02*
X10578500Y-8775000D01*
X10528500Y-8725000D02*
X10628500Y-8725000D01*
X10578500Y-8929000D02*
X10578500Y-9029000D01*
X10528500Y-8979000D02*
X10628500Y-8979000D01*
X10603500Y-4850000D02*
X10603500Y-4950000D01*
X10553500Y-4900000D02*
X10653500Y-4900000D01*
X10603500Y-5104000D02*
X10603500Y-5204000D01*
X10553500Y-5154000D02*
X10653500Y-5154000D01*
X10603500Y-6150000D02*
X10603500Y-6250000D01*
X10553500Y-6200000D02*
X10653500Y-6200000D01*
X10603500Y-6404000D02*
X10603500Y-6504000D01*
X10553500Y-6454000D02*
X10653500Y-6454000D01*
X10832500Y-7375000D02*
X10832500Y-7475000D01*
X10782500Y-7425000D02*
X10882500Y-7425000D01*
X10832500Y-7629000D02*
X10832500Y-7729000D01*
X10782500Y-7679000D02*
X10882500Y-7679000D01*
X10832500Y-8675000D02*
X10832500Y-8775000D01*
X10782500Y-8725000D02*
X10882500Y-8725000D01*
X10832500Y-8929000D02*
X10832500Y-9029000D01*
X10782500Y-8979000D02*
X10882500Y-8979000D01*
X10857500Y-4850000D02*
X10857500Y-4950000D01*
X10807500Y-4900000D02*
X10907500Y-4900000D01*
X10857500Y-5104000D02*
X10857500Y-5204000D01*
X10807500Y-5154000D02*
X10907500Y-5154000D01*
X10857500Y-6150000D02*
X10857500Y-6250000D01*
X10807500Y-6200000D02*
X10907500Y-6200000D01*
X10857500Y-6404000D02*
X10857500Y-6504000D01*
X10807500Y-6454000D02*
X10907500Y-6454000D01*
X7430891Y-10088891D02*
X7430891Y-10011109D01*
X7353109Y-10011109D01*
X7353109Y-10088891D01*
X7430891Y-10088891D01*
X7684891Y-10088891D02*
X7684891Y-10011109D01*
X7607109Y-10011109D01*
X7607109Y-10088891D01*
X7684891Y-10088891D01*
X7938891Y-10088891D02*
X7938891Y-10011109D01*
X7861109Y-10011109D01*
X7861109Y-10088891D01*
X7938891Y-10088891D01*
X10838891Y-10338891D02*
X10838891Y-10261109D01*
X10761109Y-10261109D01*
X10761109Y-10338891D01*
X10838891Y-10338891D01*
X11092891Y-10338891D02*
X11092891Y-10261109D01*
X11015109Y-10261109D01*
X11015109Y-10338891D01*
X11092891Y-10338891D01*
X11346891Y-10338891D02*
X11346891Y-10261109D01*
X11269109Y-10261109D01*
X11269109Y-10338891D01*
X11346891Y-10338891D01*
X8380000Y-11080000D02*
X8460000Y-11000000D01*
X8380000Y-10920000D01*
X8300000Y-11000000D01*
X8380000Y-11080000D01*
X8380000Y-11680000D02*
X8460000Y-11600000D01*
X8380000Y-11520000D01*
X8300000Y-11600000D01*
X8380000Y-11680000D01*
X8850000Y-11380000D02*
X8930000Y-11300000D01*
X8850000Y-11220000D01*
X8770000Y-11300000D01*
X8850000Y-11380000D01*
X9780000Y-11080000D02*
X9860000Y-11000000D01*
X9780000Y-10920000D01*
X9700000Y-11000000D01*
X9780000Y-11080000D01*
X9720000Y-11070000D02*
X9840000Y-11070000D01*
X9720000Y-10930000D02*
X9840000Y-10930000D01*
X9840000Y-11070000D02*
G75*
G03*
X9840000Y-10930000I0J70000D01*
G01*
X9720000Y-10930000D02*
G75*
G03*
X9720000Y-11070000I0J-70000D01*
G01*
X9780000Y-11730000D02*
X9860000Y-11650000D01*
X9780000Y-11570000D01*
X9700000Y-11650000D01*
X9780000Y-11730000D01*
X9720000Y-11720000D02*
X9840000Y-11720000D01*
X9720000Y-11580000D02*
X9840000Y-11580000D01*
X9840000Y-11720000D02*
G75*
G03*
X9840000Y-11580000I0J70000D01*
G01*
X9720000Y-11580000D02*
G75*
G03*
X9720000Y-11720000I0J-70000D01*
G01*
X10230000Y-11355000D02*
X10310000Y-11275000D01*
X10230000Y-11195000D01*
X10150000Y-11275000D01*
X10230000Y-11355000D01*
X10160000Y-11215000D02*
X10160000Y-11335000D01*
X10300000Y-11215000D02*
X10300000Y-11335000D01*
X10160000Y-11335000D02*
G75*
G03*
X10300000Y-11335000I70000J0D01*
G01*
X10300000Y-11215000D02*
G75*
G03*
X10160000Y-11215000I-70000J0D01*
G01*
X2170000Y-9820000D02*
X2370000Y-10020000D01*
X2370000Y-9820000D02*
X2170000Y-10020000D01*
X2370000Y-9920000D02*
G75*
G03*
X2370000Y-9920000I-100000J0D01*
G01*
X2430000Y-10080000D02*
X2630000Y-10280000D01*
X2630000Y-10080000D02*
X2430000Y-10280000D01*
X2630000Y-10180000D02*
G75*
G03*
X2630000Y-10180000I-100000J0D01*
G01*
X2680000Y-10330000D02*
X2880000Y-10530000D01*
X2880000Y-10330000D02*
X2680000Y-10530000D01*
X2880000Y-10430000D02*
G75*
G03*
X2880000Y-10430000I-100000J0D01*
G01*
X4850000Y-5670000D02*
X5050000Y-5870000D01*
X5050000Y-5670000D02*
X4850000Y-5870000D01*
X5050000Y-5770000D02*
G75*
G03*
X5050000Y-5770000I-100000J0D01*
G01*
X7220000Y-11180000D02*
X7420000Y-11380000D01*
X7420000Y-11180000D02*
X7220000Y-11380000D01*
X7420000Y-11280000D02*
G75*
G03*
X7420000Y-11280000I-100000J0D01*
G01*
X7570000Y-11180000D02*
X7770000Y-11380000D01*
X7770000Y-11180000D02*
X7570000Y-11380000D01*
X7770000Y-11280000D02*
G75*
G03*
X7770000Y-11280000I-100000J0D01*
G01*
X7900000Y-11180000D02*
X8100000Y-11380000D01*
X8100000Y-11180000D02*
X7900000Y-11380000D01*
X8100000Y-11280000D02*
G75*
G03*
X8100000Y-11280000I-100000J0D01*
G01*
X2340000Y-4340000D02*
X2660000Y-4660000D01*
X2660000Y-4340000D02*
X2340000Y-4660000D01*
X2500000Y-4340000D02*
X2500000Y-4660000D01*
X2340000Y-4500000D02*
X2660000Y-4500000D01*
X2340000Y-11340000D02*
X2660000Y-11660000D01*
X2660000Y-11340000D02*
X2340000Y-11660000D01*
X2500000Y-11340000D02*
X2500000Y-11660000D01*
X2340000Y-11500000D02*
X2660000Y-11500000D01*
X11340000Y-4340000D02*
X11660000Y-4660000D01*
X11660000Y-4340000D02*
X11340000Y-4660000D01*
X11500000Y-4340000D02*
X11500000Y-4660000D01*
X11340000Y-4500000D02*
X11660000Y-4500000D01*
X11340000Y-11340000D02*
X11660000Y-11660000D01*
X11660000Y-11340000D02*
X11340000Y-11660000D01*
X11500000Y-11340000D02*
X11500000Y-11660000D01*
X11340000Y-11500000D02*
X11660000Y-11500000D01*
D12*
X2281428Y-12470714D02*
X2281428Y-12170714D01*
X2352857Y-12170714D01*
X2395714Y-12185000D01*
X2424286Y-12213571D01*
X2438571Y-12242143D01*
X2452857Y-12299286D01*
X2452857Y-12342143D01*
X2438571Y-12399286D01*
X2424286Y-12427857D01*
X2395714Y-12456429D01*
X2352857Y-12470714D01*
X2281428Y-12470714D01*
X2581428Y-12470714D02*
X2581428Y-12270714D01*
X2581428Y-12327857D02*
X2595714Y-12299286D01*
X2610000Y-12285000D01*
X2638571Y-12270714D01*
X2667143Y-12270714D01*
X2767143Y-12470714D02*
X2767143Y-12270714D01*
X2767143Y-12170714D02*
X2752857Y-12185000D01*
X2767143Y-12199286D01*
X2781428Y-12185000D01*
X2767143Y-12170714D01*
X2767143Y-12199286D01*
X2952857Y-12470714D02*
X2924286Y-12456429D01*
X2910000Y-12427857D01*
X2910000Y-12170714D01*
X3110000Y-12470714D02*
X3081428Y-12456429D01*
X3067143Y-12427857D01*
X3067143Y-12170714D01*
X3452857Y-12470714D02*
X3452857Y-12170714D01*
X3552857Y-12385000D01*
X3652857Y-12170714D01*
X3652857Y-12470714D01*
X3924286Y-12470714D02*
X3924286Y-12313571D01*
X3910000Y-12285000D01*
X3881428Y-12270714D01*
X3824286Y-12270714D01*
X3795714Y-12285000D01*
X3924286Y-12456429D02*
X3895714Y-12470714D01*
X3824286Y-12470714D01*
X3795714Y-12456429D01*
X3781428Y-12427857D01*
X3781428Y-12399286D01*
X3795714Y-12370714D01*
X3824286Y-12356429D01*
X3895714Y-12356429D01*
X3924286Y-12342143D01*
X4067143Y-12270714D02*
X4067143Y-12570714D01*
X4067143Y-12285000D02*
X4095714Y-12270714D01*
X4152857Y-12270714D01*
X4181428Y-12285000D01*
X4195714Y-12299286D01*
X4210000Y-12327857D01*
X4210000Y-12413571D01*
X4195714Y-12442143D01*
X4181428Y-12456429D01*
X4152857Y-12470714D01*
X4095714Y-12470714D01*
X4067143Y-12456429D01*
X4338571Y-12442143D02*
X4352857Y-12456429D01*
X4338571Y-12470714D01*
X4324286Y-12456429D01*
X4338571Y-12442143D01*
X4338571Y-12470714D01*
X4338571Y-12285000D02*
X4352857Y-12299286D01*
X4338571Y-12313571D01*
X4324286Y-12299286D01*
X4338571Y-12285000D01*
X4338571Y-12313571D01*
X1955000Y-12945000D02*
X1995000Y-12985000D01*
X1995000Y-12945000D02*
X1955000Y-12985000D01*
X2338571Y-12800714D02*
X2367143Y-12800714D01*
X2395714Y-12815000D01*
X2410000Y-12829286D01*
X2424286Y-12857857D01*
X2438571Y-12915000D01*
X2438571Y-12986429D01*
X2424286Y-13043571D01*
X2410000Y-13072143D01*
X2395714Y-13086429D01*
X2367143Y-13100714D01*
X2338571Y-13100714D01*
X2310000Y-13086429D01*
X2295714Y-13072143D01*
X2281428Y-13043571D01*
X2267143Y-12986429D01*
X2267143Y-12915000D01*
X2281428Y-12857857D01*
X2295714Y-12829286D01*
X2310000Y-12815000D01*
X2338571Y-12800714D01*
X2567143Y-13072143D02*
X2581428Y-13086429D01*
X2567143Y-13100714D01*
X2552857Y-13086429D01*
X2567143Y-13072143D01*
X2567143Y-13100714D01*
X2838571Y-12900714D02*
X2838571Y-13100714D01*
X2767143Y-12786429D02*
X2695714Y-13000714D01*
X2881428Y-13000714D01*
X3052857Y-12800714D02*
X3081428Y-12800714D01*
X3110000Y-12815000D01*
X3124286Y-12829286D01*
X3138571Y-12857857D01*
X3152857Y-12915000D01*
X3152857Y-12986429D01*
X3138571Y-13043571D01*
X3124286Y-13072143D01*
X3110000Y-13086429D01*
X3081428Y-13100714D01*
X3052857Y-13100714D01*
X3024286Y-13086429D01*
X3010000Y-13072143D01*
X2995714Y-13043571D01*
X2981428Y-12986429D01*
X2981428Y-12915000D01*
X2995714Y-12857857D01*
X3010000Y-12829286D01*
X3024286Y-12815000D01*
X3052857Y-12800714D01*
X3338571Y-12800714D02*
X3367143Y-12800714D01*
X3395714Y-12815000D01*
X3410000Y-12829286D01*
X3424286Y-12857857D01*
X3438571Y-12915000D01*
X3438571Y-12986429D01*
X3424286Y-13043571D01*
X3410000Y-13072143D01*
X3395714Y-13086429D01*
X3367143Y-13100714D01*
X3338571Y-13100714D01*
X3310000Y-13086429D01*
X3295714Y-13072143D01*
X3281428Y-13043571D01*
X3267143Y-12986429D01*
X3267143Y-12915000D01*
X3281428Y-12857857D01*
X3295714Y-12829286D01*
X3310000Y-12815000D01*
X3338571Y-12800714D01*
X3567143Y-13100714D02*
X3567143Y-12900714D01*
X3567143Y-12929286D02*
X3581428Y-12915000D01*
X3610000Y-12900714D01*
X3652857Y-12900714D01*
X3681428Y-12915000D01*
X3695714Y-12943571D01*
X3695714Y-13100714D01*
X3695714Y-12943571D02*
X3710000Y-12915000D01*
X3738571Y-12900714D01*
X3781428Y-12900714D01*
X3810000Y-12915000D01*
X3824286Y-12943571D01*
X3824286Y-13100714D01*
X3967143Y-13100714D02*
X3967143Y-12900714D01*
X3967143Y-12929286D02*
X3981428Y-12915000D01*
X4010000Y-12900714D01*
X4052857Y-12900714D01*
X4081428Y-12915000D01*
X4095714Y-12943571D01*
X4095714Y-13100714D01*
X4095714Y-12943571D02*
X4110000Y-12915000D01*
X4138571Y-12900714D01*
X4181428Y-12900714D01*
X4210000Y-12915000D01*
X4224286Y-12943571D01*
X4224286Y-13100714D01*
X4810000Y-12786429D02*
X4552857Y-13172143D01*
X5195714Y-12800714D02*
X5224286Y-12800714D01*
X5252857Y-12815000D01*
X5267143Y-12829286D01*
X5281428Y-12857857D01*
X5295714Y-12915000D01*
X5295714Y-12986429D01*
X5281428Y-13043571D01*
X5267143Y-13072143D01*
X5252857Y-13086429D01*
X5224286Y-13100714D01*
X5195714Y-13100714D01*
X5167143Y-13086429D01*
X5152857Y-13072143D01*
X5138571Y-13043571D01*
X5124286Y-12986429D01*
X5124286Y-12915000D01*
X5138571Y-12857857D01*
X5152857Y-12829286D01*
X5167143Y-12815000D01*
X5195714Y-12800714D01*
X5424286Y-13072143D02*
X5438571Y-13086429D01*
X5424286Y-13100714D01*
X5410000Y-13086429D01*
X5424286Y-13072143D01*
X5424286Y-13100714D01*
X5624286Y-12800714D02*
X5652857Y-12800714D01*
X5681428Y-12815000D01*
X5695714Y-12829286D01*
X5710000Y-12857857D01*
X5724286Y-12915000D01*
X5724286Y-12986429D01*
X5710000Y-13043571D01*
X5695714Y-13072143D01*
X5681428Y-13086429D01*
X5652857Y-13100714D01*
X5624286Y-13100714D01*
X5595714Y-13086429D01*
X5581428Y-13072143D01*
X5567143Y-13043571D01*
X5552857Y-12986429D01*
X5552857Y-12915000D01*
X5567143Y-12857857D01*
X5581428Y-12829286D01*
X5595714Y-12815000D01*
X5624286Y-12800714D01*
X6010000Y-13100714D02*
X5838571Y-13100714D01*
X5924286Y-13100714D02*
X5924286Y-12800714D01*
X5895714Y-12843571D01*
X5867143Y-12872143D01*
X5838571Y-12886429D01*
X6281428Y-12800714D02*
X6138571Y-12800714D01*
X6124286Y-12943571D01*
X6138571Y-12929286D01*
X6167143Y-12915000D01*
X6238571Y-12915000D01*
X6267143Y-12929286D01*
X6281428Y-12943571D01*
X6295714Y-12972143D01*
X6295714Y-13043571D01*
X6281428Y-13072143D01*
X6267143Y-13086429D01*
X6238571Y-13100714D01*
X6167143Y-13100714D01*
X6138571Y-13086429D01*
X6124286Y-13072143D01*
X6395714Y-12800714D02*
X6595714Y-12800714D01*
X6467143Y-13100714D01*
X6695714Y-12800714D02*
X6695714Y-12857857D01*
X6810000Y-12800714D02*
X6810000Y-12857857D01*
X7252857Y-13215000D02*
X7238571Y-13200714D01*
X7210000Y-13157857D01*
X7195714Y-13129286D01*
X7181428Y-13086429D01*
X7167143Y-13015000D01*
X7167143Y-12957857D01*
X7181428Y-12886429D01*
X7195714Y-12843571D01*
X7210000Y-12815000D01*
X7238571Y-12772143D01*
X7252857Y-12757857D01*
X7338571Y-12800714D02*
X7524286Y-12800714D01*
X7424286Y-12915000D01*
X7467143Y-12915000D01*
X7495714Y-12929286D01*
X7510000Y-12943571D01*
X7524286Y-12972143D01*
X7524286Y-13043571D01*
X7510000Y-13072143D01*
X7495714Y-13086429D01*
X7467143Y-13100714D01*
X7381428Y-13100714D01*
X7352857Y-13086429D01*
X7338571Y-13072143D01*
X7781428Y-12900714D02*
X7781428Y-13100714D01*
X7710000Y-12786429D02*
X7638571Y-13000714D01*
X7824286Y-13000714D01*
X8167143Y-13100714D02*
X8167143Y-12800714D01*
X8295714Y-13100714D02*
X8295714Y-12943571D01*
X8281428Y-12915000D01*
X8252857Y-12900714D01*
X8210000Y-12900714D01*
X8181428Y-12915000D01*
X8167143Y-12929286D01*
X8481428Y-13100714D02*
X8452857Y-13086429D01*
X8438571Y-13072143D01*
X8424286Y-13043571D01*
X8424286Y-12957857D01*
X8438571Y-12929286D01*
X8452857Y-12915000D01*
X8481428Y-12900714D01*
X8524286Y-12900714D01*
X8552857Y-12915000D01*
X8567143Y-12929286D01*
X8581428Y-12957857D01*
X8581428Y-13043571D01*
X8567143Y-13072143D01*
X8552857Y-13086429D01*
X8524286Y-13100714D01*
X8481428Y-13100714D01*
X8752857Y-13100714D02*
X8724286Y-13086429D01*
X8710000Y-13057857D01*
X8710000Y-12800714D01*
X8981428Y-13086429D02*
X8952857Y-13100714D01*
X8895714Y-13100714D01*
X8867143Y-13086429D01*
X8852857Y-13057857D01*
X8852857Y-12943571D01*
X8867143Y-12915000D01*
X8895714Y-12900714D01*
X8952857Y-12900714D01*
X8981428Y-12915000D01*
X8995714Y-12943571D01*
X8995714Y-12972143D01*
X8852857Y-13000714D01*
X9110000Y-13086429D02*
X9138571Y-13100714D01*
X9195714Y-13100714D01*
X9224286Y-13086429D01*
X9238571Y-13057857D01*
X9238571Y-13043571D01*
X9224286Y-13015000D01*
X9195714Y-13000714D01*
X9152857Y-13000714D01*
X9124286Y-12986429D01*
X9110000Y-12957857D01*
X9110000Y-12943571D01*
X9124286Y-12915000D01*
X9152857Y-12900714D01*
X9195714Y-12900714D01*
X9224286Y-12915000D01*
X9338571Y-13215000D02*
X9352857Y-13200714D01*
X9381428Y-13157857D01*
X9395714Y-13129286D01*
X9410000Y-13086429D01*
X9424286Y-13015000D01*
X9424286Y-12957857D01*
X9410000Y-12886429D01*
X9395714Y-12843571D01*
X9381428Y-12815000D01*
X9352857Y-12772143D01*
X9338571Y-12757857D01*
X1995000Y-13361000D02*
G75*
G03*
X1995000Y-13361000I-40000J0D01*
G01*
X2338571Y-13196714D02*
X2367143Y-13196714D01*
X2395714Y-13211000D01*
X2410000Y-13225286D01*
X2424286Y-13253857D01*
X2438571Y-13311000D01*
X2438571Y-13382429D01*
X2424286Y-13439571D01*
X2410000Y-13468143D01*
X2395714Y-13482429D01*
X2367143Y-13496714D01*
X2338571Y-13496714D01*
X2310000Y-13482429D01*
X2295714Y-13468143D01*
X2281428Y-13439571D01*
X2267143Y-13382429D01*
X2267143Y-13311000D01*
X2281428Y-13253857D01*
X2295714Y-13225286D01*
X2310000Y-13211000D01*
X2338571Y-13196714D01*
X2567143Y-13468143D02*
X2581428Y-13482429D01*
X2567143Y-13496714D01*
X2552857Y-13482429D01*
X2567143Y-13468143D01*
X2567143Y-13496714D01*
X2752857Y-13325286D02*
X2724286Y-13311000D01*
X2710000Y-13296714D01*
X2695714Y-13268143D01*
X2695714Y-13253857D01*
X2710000Y-13225286D01*
X2724286Y-13211000D01*
X2752857Y-13196714D01*
X2810000Y-13196714D01*
X2838571Y-13211000D01*
X2852857Y-13225286D01*
X2867143Y-13253857D01*
X2867143Y-13268143D01*
X2852857Y-13296714D01*
X2838571Y-13311000D01*
X2810000Y-13325286D01*
X2752857Y-13325286D01*
X2724286Y-13339571D01*
X2710000Y-13353857D01*
X2695714Y-13382429D01*
X2695714Y-13439571D01*
X2710000Y-13468143D01*
X2724286Y-13482429D01*
X2752857Y-13496714D01*
X2810000Y-13496714D01*
X2838571Y-13482429D01*
X2852857Y-13468143D01*
X2867143Y-13439571D01*
X2867143Y-13382429D01*
X2852857Y-13353857D01*
X2838571Y-13339571D01*
X2810000Y-13325286D01*
X3052857Y-13196714D02*
X3081428Y-13196714D01*
X3110000Y-13211000D01*
X3124286Y-13225286D01*
X3138571Y-13253857D01*
X3152857Y-13311000D01*
X3152857Y-13382429D01*
X3138571Y-13439571D01*
X3124286Y-13468143D01*
X3110000Y-13482429D01*
X3081428Y-13496714D01*
X3052857Y-13496714D01*
X3024286Y-13482429D01*
X3010000Y-13468143D01*
X2995714Y-13439571D01*
X2981428Y-13382429D01*
X2981428Y-13311000D01*
X2995714Y-13253857D01*
X3010000Y-13225286D01*
X3024286Y-13211000D01*
X3052857Y-13196714D01*
X3338571Y-13196714D02*
X3367143Y-13196714D01*
X3395714Y-13211000D01*
X3410000Y-13225286D01*
X3424286Y-13253857D01*
X3438571Y-13311000D01*
X3438571Y-13382429D01*
X3424286Y-13439571D01*
X3410000Y-13468143D01*
X3395714Y-13482429D01*
X3367143Y-13496714D01*
X3338571Y-13496714D01*
X3310000Y-13482429D01*
X3295714Y-13468143D01*
X3281428Y-13439571D01*
X3267143Y-13382429D01*
X3267143Y-13311000D01*
X3281428Y-13253857D01*
X3295714Y-13225286D01*
X3310000Y-13211000D01*
X3338571Y-13196714D01*
X3567143Y-13496714D02*
X3567143Y-13296714D01*
X3567143Y-13325286D02*
X3581428Y-13311000D01*
X3610000Y-13296714D01*
X3652857Y-13296714D01*
X3681428Y-13311000D01*
X3695714Y-13339571D01*
X3695714Y-13496714D01*
X3695714Y-13339571D02*
X3710000Y-13311000D01*
X3738571Y-13296714D01*
X3781428Y-13296714D01*
X3810000Y-13311000D01*
X3824286Y-13339571D01*
X3824286Y-13496714D01*
X3967143Y-13496714D02*
X3967143Y-13296714D01*
X3967143Y-13325286D02*
X3981428Y-13311000D01*
X4010000Y-13296714D01*
X4052857Y-13296714D01*
X4081428Y-13311000D01*
X4095714Y-13339571D01*
X4095714Y-13496714D01*
X4095714Y-13339571D02*
X4110000Y-13311000D01*
X4138571Y-13296714D01*
X4181428Y-13296714D01*
X4210000Y-13311000D01*
X4224286Y-13339571D01*
X4224286Y-13496714D01*
X4810000Y-13182429D02*
X4552857Y-13568143D01*
X5195714Y-13196714D02*
X5224286Y-13196714D01*
X5252857Y-13211000D01*
X5267143Y-13225286D01*
X5281428Y-13253857D01*
X5295714Y-13311000D01*
X5295714Y-13382429D01*
X5281428Y-13439571D01*
X5267143Y-13468143D01*
X5252857Y-13482429D01*
X5224286Y-13496714D01*
X5195714Y-13496714D01*
X5167143Y-13482429D01*
X5152857Y-13468143D01*
X5138571Y-13439571D01*
X5124286Y-13382429D01*
X5124286Y-13311000D01*
X5138571Y-13253857D01*
X5152857Y-13225286D01*
X5167143Y-13211000D01*
X5195714Y-13196714D01*
X5424286Y-13468143D02*
X5438571Y-13482429D01*
X5424286Y-13496714D01*
X5410000Y-13482429D01*
X5424286Y-13468143D01*
X5424286Y-13496714D01*
X5624286Y-13196714D02*
X5652857Y-13196714D01*
X5681428Y-13211000D01*
X5695714Y-13225286D01*
X5710000Y-13253857D01*
X5724286Y-13311000D01*
X5724286Y-13382429D01*
X5710000Y-13439571D01*
X5695714Y-13468143D01*
X5681428Y-13482429D01*
X5652857Y-13496714D01*
X5624286Y-13496714D01*
X5595714Y-13482429D01*
X5581428Y-13468143D01*
X5567143Y-13439571D01*
X5552857Y-13382429D01*
X5552857Y-13311000D01*
X5567143Y-13253857D01*
X5581428Y-13225286D01*
X5595714Y-13211000D01*
X5624286Y-13196714D01*
X5824286Y-13196714D02*
X6010000Y-13196714D01*
X5910000Y-13311000D01*
X5952857Y-13311000D01*
X5981428Y-13325286D01*
X5995714Y-13339571D01*
X6010000Y-13368143D01*
X6010000Y-13439571D01*
X5995714Y-13468143D01*
X5981428Y-13482429D01*
X5952857Y-13496714D01*
X5867143Y-13496714D01*
X5838571Y-13482429D01*
X5824286Y-13468143D01*
X6295714Y-13496714D02*
X6124286Y-13496714D01*
X6210000Y-13496714D02*
X6210000Y-13196714D01*
X6181428Y-13239571D01*
X6152857Y-13268143D01*
X6124286Y-13282429D01*
X6567143Y-13196714D02*
X6424286Y-13196714D01*
X6410000Y-13339571D01*
X6424286Y-13325286D01*
X6452857Y-13311000D01*
X6524286Y-13311000D01*
X6552857Y-13325286D01*
X6567143Y-13339571D01*
X6581428Y-13368143D01*
X6581428Y-13439571D01*
X6567143Y-13468143D01*
X6552857Y-13482429D01*
X6524286Y-13496714D01*
X6452857Y-13496714D01*
X6424286Y-13482429D01*
X6410000Y-13468143D01*
X6695714Y-13196714D02*
X6695714Y-13253857D01*
X6810000Y-13196714D02*
X6810000Y-13253857D01*
X7252857Y-13611000D02*
X7238571Y-13596714D01*
X7210000Y-13553857D01*
X7195714Y-13525286D01*
X7181428Y-13482429D01*
X7167143Y-13411000D01*
X7167143Y-13353857D01*
X7181428Y-13282429D01*
X7195714Y-13239571D01*
X7210000Y-13211000D01*
X7238571Y-13168143D01*
X7252857Y-13153857D01*
X7510000Y-13196714D02*
X7367143Y-13196714D01*
X7352857Y-13339571D01*
X7367143Y-13325286D01*
X7395714Y-13311000D01*
X7467143Y-13311000D01*
X7495714Y-13325286D01*
X7510000Y-13339571D01*
X7524286Y-13368143D01*
X7524286Y-13439571D01*
X7510000Y-13468143D01*
X7495714Y-13482429D01*
X7467143Y-13496714D01*
X7395714Y-13496714D01*
X7367143Y-13482429D01*
X7352857Y-13468143D01*
X7695714Y-13325286D02*
X7667143Y-13311000D01*
X7652857Y-13296714D01*
X7638571Y-13268143D01*
X7638571Y-13253857D01*
X7652857Y-13225286D01*
X7667143Y-13211000D01*
X7695714Y-13196714D01*
X7752857Y-13196714D01*
X7781428Y-13211000D01*
X7795714Y-13225286D01*
X7810000Y-13253857D01*
X7810000Y-13268143D01*
X7795714Y-13296714D01*
X7781428Y-13311000D01*
X7752857Y-13325286D01*
X7695714Y-13325286D01*
X7667143Y-13339571D01*
X7652857Y-13353857D01*
X7638571Y-13382429D01*
X7638571Y-13439571D01*
X7652857Y-13468143D01*
X7667143Y-13482429D01*
X7695714Y-13496714D01*
X7752857Y-13496714D01*
X7781428Y-13482429D01*
X7795714Y-13468143D01*
X7810000Y-13439571D01*
X7810000Y-13382429D01*
X7795714Y-13353857D01*
X7781428Y-13339571D01*
X7752857Y-13325286D01*
X8167143Y-13496714D02*
X8167143Y-13196714D01*
X8295714Y-13496714D02*
X8295714Y-13339571D01*
X8281428Y-13311000D01*
X8252857Y-13296714D01*
X8210000Y-13296714D01*
X8181428Y-13311000D01*
X8167143Y-13325286D01*
X8481428Y-13496714D02*
X8452857Y-13482429D01*
X8438571Y-13468143D01*
X8424286Y-13439571D01*
X8424286Y-13353857D01*
X8438571Y-13325286D01*
X8452857Y-13311000D01*
X8481428Y-13296714D01*
X8524286Y-13296714D01*
X8552857Y-13311000D01*
X8567143Y-13325286D01*
X8581428Y-13353857D01*
X8581428Y-13439571D01*
X8567143Y-13468143D01*
X8552857Y-13482429D01*
X8524286Y-13496714D01*
X8481428Y-13496714D01*
X8752857Y-13496714D02*
X8724286Y-13482429D01*
X8710000Y-13453857D01*
X8710000Y-13196714D01*
X8981428Y-13482429D02*
X8952857Y-13496714D01*
X8895714Y-13496714D01*
X8867143Y-13482429D01*
X8852857Y-13453857D01*
X8852857Y-13339571D01*
X8867143Y-13311000D01*
X8895714Y-13296714D01*
X8952857Y-13296714D01*
X8981428Y-13311000D01*
X8995714Y-13339571D01*
X8995714Y-13368143D01*
X8852857Y-13396714D01*
X9110000Y-13482429D02*
X9138571Y-13496714D01*
X9195714Y-13496714D01*
X9224286Y-13482429D01*
X9238571Y-13453857D01*
X9238571Y-13439571D01*
X9224286Y-13411000D01*
X9195714Y-13396714D01*
X9152857Y-13396714D01*
X9124286Y-13382429D01*
X9110000Y-13353857D01*
X9110000Y-13339571D01*
X9124286Y-13311000D01*
X9152857Y-13296714D01*
X9195714Y-13296714D01*
X9224286Y-13311000D01*
X9338571Y-13611000D02*
X9352857Y-13596714D01*
X9381428Y-13553857D01*
X9395714Y-13525286D01*
X9410000Y-13482429D01*
X9424286Y-13411000D01*
X9424286Y-13353857D01*
X9410000Y-13282429D01*
X9395714Y-13239571D01*
X9381428Y-13211000D01*
X9352857Y-13168143D01*
X9338571Y-13153857D01*
X1945000Y-13707000D02*
X1945000Y-13807000D01*
X1895000Y-13757000D02*
X1995000Y-13757000D01*
X2438571Y-13892714D02*
X2267143Y-13892714D01*
X2352857Y-13892714D02*
X2352857Y-13592714D01*
X2324286Y-13635571D01*
X2295714Y-13664143D01*
X2267143Y-13678429D01*
X2567143Y-13864143D02*
X2581428Y-13878429D01*
X2567143Y-13892714D01*
X2552857Y-13878429D01*
X2567143Y-13864143D01*
X2567143Y-13892714D01*
X2767143Y-13592714D02*
X2795714Y-13592714D01*
X2824286Y-13607000D01*
X2838571Y-13621286D01*
X2852857Y-13649857D01*
X2867143Y-13707000D01*
X2867143Y-13778429D01*
X2852857Y-13835571D01*
X2838571Y-13864143D01*
X2824286Y-13878429D01*
X2795714Y-13892714D01*
X2767143Y-13892714D01*
X2738571Y-13878429D01*
X2724286Y-13864143D01*
X2710000Y-13835571D01*
X2695714Y-13778429D01*
X2695714Y-13707000D01*
X2710000Y-13649857D01*
X2724286Y-13621286D01*
X2738571Y-13607000D01*
X2767143Y-13592714D01*
X3052857Y-13592714D02*
X3081428Y-13592714D01*
X3110000Y-13607000D01*
X3124286Y-13621286D01*
X3138571Y-13649857D01*
X3152857Y-13707000D01*
X3152857Y-13778429D01*
X3138571Y-13835571D01*
X3124286Y-13864143D01*
X3110000Y-13878429D01*
X3081428Y-13892714D01*
X3052857Y-13892714D01*
X3024286Y-13878429D01*
X3010000Y-13864143D01*
X2995714Y-13835571D01*
X2981428Y-13778429D01*
X2981428Y-13707000D01*
X2995714Y-13649857D01*
X3010000Y-13621286D01*
X3024286Y-13607000D01*
X3052857Y-13592714D01*
X3338571Y-13592714D02*
X3367143Y-13592714D01*
X3395714Y-13607000D01*
X3410000Y-13621286D01*
X3424286Y-13649857D01*
X3438571Y-13707000D01*
X3438571Y-13778429D01*
X3424286Y-13835571D01*
X3410000Y-13864143D01*
X3395714Y-13878429D01*
X3367143Y-13892714D01*
X3338571Y-13892714D01*
X3310000Y-13878429D01*
X3295714Y-13864143D01*
X3281428Y-13835571D01*
X3267143Y-13778429D01*
X3267143Y-13707000D01*
X3281428Y-13649857D01*
X3295714Y-13621286D01*
X3310000Y-13607000D01*
X3338571Y-13592714D01*
X3567143Y-13892714D02*
X3567143Y-13692714D01*
X3567143Y-13721286D02*
X3581428Y-13707000D01*
X3610000Y-13692714D01*
X3652857Y-13692714D01*
X3681428Y-13707000D01*
X3695714Y-13735571D01*
X3695714Y-13892714D01*
X3695714Y-13735571D02*
X3710000Y-13707000D01*
X3738571Y-13692714D01*
X3781428Y-13692714D01*
X3810000Y-13707000D01*
X3824286Y-13735571D01*
X3824286Y-13892714D01*
X3967143Y-13892714D02*
X3967143Y-13692714D01*
X3967143Y-13721286D02*
X3981428Y-13707000D01*
X4010000Y-13692714D01*
X4052857Y-13692714D01*
X4081428Y-13707000D01*
X4095714Y-13735571D01*
X4095714Y-13892714D01*
X4095714Y-13735571D02*
X4110000Y-13707000D01*
X4138571Y-13692714D01*
X4181428Y-13692714D01*
X4210000Y-13707000D01*
X4224286Y-13735571D01*
X4224286Y-13892714D01*
X4810000Y-13578429D02*
X4552857Y-13964143D01*
X5195714Y-13592714D02*
X5224286Y-13592714D01*
X5252857Y-13607000D01*
X5267143Y-13621286D01*
X5281428Y-13649857D01*
X5295714Y-13707000D01*
X5295714Y-13778429D01*
X5281428Y-13835571D01*
X5267143Y-13864143D01*
X5252857Y-13878429D01*
X5224286Y-13892714D01*
X5195714Y-13892714D01*
X5167143Y-13878429D01*
X5152857Y-13864143D01*
X5138571Y-13835571D01*
X5124286Y-13778429D01*
X5124286Y-13707000D01*
X5138571Y-13649857D01*
X5152857Y-13621286D01*
X5167143Y-13607000D01*
X5195714Y-13592714D01*
X5424286Y-13864143D02*
X5438571Y-13878429D01*
X5424286Y-13892714D01*
X5410000Y-13878429D01*
X5424286Y-13864143D01*
X5424286Y-13892714D01*
X5624286Y-13592714D02*
X5652857Y-13592714D01*
X5681428Y-13607000D01*
X5695714Y-13621286D01*
X5710000Y-13649857D01*
X5724286Y-13707000D01*
X5724286Y-13778429D01*
X5710000Y-13835571D01*
X5695714Y-13864143D01*
X5681428Y-13878429D01*
X5652857Y-13892714D01*
X5624286Y-13892714D01*
X5595714Y-13878429D01*
X5581428Y-13864143D01*
X5567143Y-13835571D01*
X5552857Y-13778429D01*
X5552857Y-13707000D01*
X5567143Y-13649857D01*
X5581428Y-13621286D01*
X5595714Y-13607000D01*
X5624286Y-13592714D01*
X5824286Y-13592714D02*
X6010000Y-13592714D01*
X5910000Y-13707000D01*
X5952857Y-13707000D01*
X5981428Y-13721286D01*
X5995714Y-13735571D01*
X6010000Y-13764143D01*
X6010000Y-13835571D01*
X5995714Y-13864143D01*
X5981428Y-13878429D01*
X5952857Y-13892714D01*
X5867143Y-13892714D01*
X5838571Y-13878429D01*
X5824286Y-13864143D01*
X6152857Y-13892714D02*
X6210000Y-13892714D01*
X6238571Y-13878429D01*
X6252857Y-13864143D01*
X6281428Y-13821286D01*
X6295714Y-13764143D01*
X6295714Y-13649857D01*
X6281428Y-13621286D01*
X6267143Y-13607000D01*
X6238571Y-13592714D01*
X6181428Y-13592714D01*
X6152857Y-13607000D01*
X6138571Y-13621286D01*
X6124286Y-13649857D01*
X6124286Y-13721286D01*
X6138571Y-13749857D01*
X6152857Y-13764143D01*
X6181428Y-13778429D01*
X6238571Y-13778429D01*
X6267143Y-13764143D01*
X6281428Y-13749857D01*
X6295714Y-13721286D01*
X6552857Y-13692714D02*
X6552857Y-13892714D01*
X6481428Y-13578429D02*
X6410000Y-13792714D01*
X6595714Y-13792714D01*
X6695714Y-13592714D02*
X6695714Y-13649857D01*
X6810000Y-13592714D02*
X6810000Y-13649857D01*
X7252857Y-14007000D02*
X7238571Y-13992714D01*
X7210000Y-13949857D01*
X7195714Y-13921286D01*
X7181428Y-13878429D01*
X7167143Y-13807000D01*
X7167143Y-13749857D01*
X7181428Y-13678429D01*
X7195714Y-13635571D01*
X7210000Y-13607000D01*
X7238571Y-13564143D01*
X7252857Y-13549857D01*
X7510000Y-13592714D02*
X7367143Y-13592714D01*
X7352857Y-13735571D01*
X7367143Y-13721286D01*
X7395714Y-13707000D01*
X7467143Y-13707000D01*
X7495714Y-13721286D01*
X7510000Y-13735571D01*
X7524286Y-13764143D01*
X7524286Y-13835571D01*
X7510000Y-13864143D01*
X7495714Y-13878429D01*
X7467143Y-13892714D01*
X7395714Y-13892714D01*
X7367143Y-13878429D01*
X7352857Y-13864143D01*
X7624286Y-13592714D02*
X7810000Y-13592714D01*
X7710000Y-13707000D01*
X7752857Y-13707000D01*
X7781428Y-13721286D01*
X7795714Y-13735571D01*
X7810000Y-13764143D01*
X7810000Y-13835571D01*
X7795714Y-13864143D01*
X7781428Y-13878429D01*
X7752857Y-13892714D01*
X7667143Y-13892714D01*
X7638571Y-13878429D01*
X7624286Y-13864143D01*
X8167143Y-13892714D02*
X8167143Y-13592714D01*
X8295714Y-13892714D02*
X8295714Y-13735571D01*
X8281428Y-13707000D01*
X8252857Y-13692714D01*
X8210000Y-13692714D01*
X8181428Y-13707000D01*
X8167143Y-13721286D01*
X8481428Y-13892714D02*
X8452857Y-13878429D01*
X8438571Y-13864143D01*
X8424286Y-13835571D01*
X8424286Y-13749857D01*
X8438571Y-13721286D01*
X8452857Y-13707000D01*
X8481428Y-13692714D01*
X8524286Y-13692714D01*
X8552857Y-13707000D01*
X8567143Y-13721286D01*
X8581428Y-13749857D01*
X8581428Y-13835571D01*
X8567143Y-13864143D01*
X8552857Y-13878429D01*
X8524286Y-13892714D01*
X8481428Y-13892714D01*
X8752857Y-13892714D02*
X8724286Y-13878429D01*
X8710000Y-13849857D01*
X8710000Y-13592714D01*
X8981428Y-13878429D02*
X8952857Y-13892714D01*
X8895714Y-13892714D01*
X8867143Y-13878429D01*
X8852857Y-13849857D01*
X8852857Y-13735571D01*
X8867143Y-13707000D01*
X8895714Y-13692714D01*
X8952857Y-13692714D01*
X8981428Y-13707000D01*
X8995714Y-13735571D01*
X8995714Y-13764143D01*
X8852857Y-13792714D01*
X9110000Y-13878429D02*
X9138571Y-13892714D01*
X9195714Y-13892714D01*
X9224286Y-13878429D01*
X9238571Y-13849857D01*
X9238571Y-13835571D01*
X9224286Y-13807000D01*
X9195714Y-13792714D01*
X9152857Y-13792714D01*
X9124286Y-13778429D01*
X9110000Y-13749857D01*
X9110000Y-13735571D01*
X9124286Y-13707000D01*
X9152857Y-13692714D01*
X9195714Y-13692714D01*
X9224286Y-13707000D01*
X9338571Y-14007000D02*
X9352857Y-13992714D01*
X9381428Y-13949857D01*
X9395714Y-13921286D01*
X9410000Y-13878429D01*
X9424286Y-13807000D01*
X9424286Y-13749857D01*
X9410000Y-13678429D01*
X9395714Y-13635571D01*
X9381428Y-13607000D01*
X9352857Y-13564143D01*
X9338571Y-13549857D01*
X1978891Y-14191891D02*
X1978891Y-14114109D01*
X1901109Y-14114109D01*
X1901109Y-14191891D01*
X1978891Y-14191891D01*
X2438571Y-14288714D02*
X2267143Y-14288714D01*
X2352857Y-14288714D02*
X2352857Y-13988714D01*
X2324286Y-14031571D01*
X2295714Y-14060143D01*
X2267143Y-14074429D01*
X2567143Y-14260143D02*
X2581428Y-14274429D01*
X2567143Y-14288714D01*
X2552857Y-14274429D01*
X2567143Y-14260143D01*
X2567143Y-14288714D01*
X2867143Y-14288714D02*
X2695714Y-14288714D01*
X2781428Y-14288714D02*
X2781428Y-13988714D01*
X2752857Y-14031571D01*
X2724286Y-14060143D01*
X2695714Y-14074429D01*
X3052857Y-13988714D02*
X3081428Y-13988714D01*
X3110000Y-14003000D01*
X3124286Y-14017286D01*
X3138571Y-14045857D01*
X3152857Y-14103000D01*
X3152857Y-14174429D01*
X3138571Y-14231571D01*
X3124286Y-14260143D01*
X3110000Y-14274429D01*
X3081428Y-14288714D01*
X3052857Y-14288714D01*
X3024286Y-14274429D01*
X3010000Y-14260143D01*
X2995714Y-14231571D01*
X2981428Y-14174429D01*
X2981428Y-14103000D01*
X2995714Y-14045857D01*
X3010000Y-14017286D01*
X3024286Y-14003000D01*
X3052857Y-13988714D01*
X3338571Y-13988714D02*
X3367143Y-13988714D01*
X3395714Y-14003000D01*
X3410000Y-14017286D01*
X3424286Y-14045857D01*
X3438571Y-14103000D01*
X3438571Y-14174429D01*
X3424286Y-14231571D01*
X3410000Y-14260143D01*
X3395714Y-14274429D01*
X3367143Y-14288714D01*
X3338571Y-14288714D01*
X3310000Y-14274429D01*
X3295714Y-14260143D01*
X3281428Y-14231571D01*
X3267143Y-14174429D01*
X3267143Y-14103000D01*
X3281428Y-14045857D01*
X3295714Y-14017286D01*
X3310000Y-14003000D01*
X3338571Y-13988714D01*
X3567143Y-14288714D02*
X3567143Y-14088714D01*
X3567143Y-14117286D02*
X3581428Y-14103000D01*
X3610000Y-14088714D01*
X3652857Y-14088714D01*
X3681428Y-14103000D01*
X3695714Y-14131571D01*
X3695714Y-14288714D01*
X3695714Y-14131571D02*
X3710000Y-14103000D01*
X3738571Y-14088714D01*
X3781428Y-14088714D01*
X3810000Y-14103000D01*
X3824286Y-14131571D01*
X3824286Y-14288714D01*
X3967143Y-14288714D02*
X3967143Y-14088714D01*
X3967143Y-14117286D02*
X3981428Y-14103000D01*
X4010000Y-14088714D01*
X4052857Y-14088714D01*
X4081428Y-14103000D01*
X4095714Y-14131571D01*
X4095714Y-14288714D01*
X4095714Y-14131571D02*
X4110000Y-14103000D01*
X4138571Y-14088714D01*
X4181428Y-14088714D01*
X4210000Y-14103000D01*
X4224286Y-14131571D01*
X4224286Y-14288714D01*
X4810000Y-13974429D02*
X4552857Y-14360143D01*
X5195714Y-13988714D02*
X5224286Y-13988714D01*
X5252857Y-14003000D01*
X5267143Y-14017286D01*
X5281428Y-14045857D01*
X5295714Y-14103000D01*
X5295714Y-14174429D01*
X5281428Y-14231571D01*
X5267143Y-14260143D01*
X5252857Y-14274429D01*
X5224286Y-14288714D01*
X5195714Y-14288714D01*
X5167143Y-14274429D01*
X5152857Y-14260143D01*
X5138571Y-14231571D01*
X5124286Y-14174429D01*
X5124286Y-14103000D01*
X5138571Y-14045857D01*
X5152857Y-14017286D01*
X5167143Y-14003000D01*
X5195714Y-13988714D01*
X5424286Y-14260143D02*
X5438571Y-14274429D01*
X5424286Y-14288714D01*
X5410000Y-14274429D01*
X5424286Y-14260143D01*
X5424286Y-14288714D01*
X5624286Y-13988714D02*
X5652857Y-13988714D01*
X5681428Y-14003000D01*
X5695714Y-14017286D01*
X5710000Y-14045857D01*
X5724286Y-14103000D01*
X5724286Y-14174429D01*
X5710000Y-14231571D01*
X5695714Y-14260143D01*
X5681428Y-14274429D01*
X5652857Y-14288714D01*
X5624286Y-14288714D01*
X5595714Y-14274429D01*
X5581428Y-14260143D01*
X5567143Y-14231571D01*
X5552857Y-14174429D01*
X5552857Y-14103000D01*
X5567143Y-14045857D01*
X5581428Y-14017286D01*
X5595714Y-14003000D01*
X5624286Y-13988714D01*
X5981428Y-14088714D02*
X5981428Y-14288714D01*
X5910000Y-13974429D02*
X5838571Y-14188714D01*
X6024286Y-14188714D01*
X6110000Y-13988714D02*
X6295714Y-13988714D01*
X6195714Y-14103000D01*
X6238571Y-14103000D01*
X6267143Y-14117286D01*
X6281428Y-14131571D01*
X6295714Y-14160143D01*
X6295714Y-14231571D01*
X6281428Y-14260143D01*
X6267143Y-14274429D01*
X6238571Y-14288714D01*
X6152857Y-14288714D01*
X6124286Y-14274429D01*
X6110000Y-14260143D01*
X6395714Y-13988714D02*
X6581428Y-13988714D01*
X6481428Y-14103000D01*
X6524286Y-14103000D01*
X6552857Y-14117286D01*
X6567143Y-14131571D01*
X6581428Y-14160143D01*
X6581428Y-14231571D01*
X6567143Y-14260143D01*
X6552857Y-14274429D01*
X6524286Y-14288714D01*
X6438571Y-14288714D01*
X6410000Y-14274429D01*
X6395714Y-14260143D01*
X6695714Y-13988714D02*
X6695714Y-14045857D01*
X6810000Y-13988714D02*
X6810000Y-14045857D01*
X7252857Y-14403000D02*
X7238571Y-14388714D01*
X7210000Y-14345857D01*
X7195714Y-14317286D01*
X7181428Y-14274429D01*
X7167143Y-14203000D01*
X7167143Y-14145857D01*
X7181428Y-14074429D01*
X7195714Y-14031571D01*
X7210000Y-14003000D01*
X7238571Y-13960143D01*
X7252857Y-13945857D01*
X7495714Y-13988714D02*
X7438571Y-13988714D01*
X7410000Y-14003000D01*
X7395714Y-14017286D01*
X7367143Y-14060143D01*
X7352857Y-14117286D01*
X7352857Y-14231571D01*
X7367143Y-14260143D01*
X7381428Y-14274429D01*
X7410000Y-14288714D01*
X7467143Y-14288714D01*
X7495714Y-14274429D01*
X7510000Y-14260143D01*
X7524286Y-14231571D01*
X7524286Y-14160143D01*
X7510000Y-14131571D01*
X7495714Y-14117286D01*
X7467143Y-14103000D01*
X7410000Y-14103000D01*
X7381428Y-14117286D01*
X7367143Y-14131571D01*
X7352857Y-14160143D01*
X7881428Y-14288714D02*
X7881428Y-13988714D01*
X8010000Y-14288714D02*
X8010000Y-14131571D01*
X7995714Y-14103000D01*
X7967143Y-14088714D01*
X7924286Y-14088714D01*
X7895714Y-14103000D01*
X7881428Y-14117286D01*
X8195714Y-14288714D02*
X8167143Y-14274429D01*
X8152857Y-14260143D01*
X8138571Y-14231571D01*
X8138571Y-14145857D01*
X8152857Y-14117286D01*
X8167143Y-14103000D01*
X8195714Y-14088714D01*
X8238571Y-14088714D01*
X8267143Y-14103000D01*
X8281428Y-14117286D01*
X8295714Y-14145857D01*
X8295714Y-14231571D01*
X8281428Y-14260143D01*
X8267143Y-14274429D01*
X8238571Y-14288714D01*
X8195714Y-14288714D01*
X8467143Y-14288714D02*
X8438571Y-14274429D01*
X8424286Y-14245857D01*
X8424286Y-13988714D01*
X8695714Y-14274429D02*
X8667143Y-14288714D01*
X8610000Y-14288714D01*
X8581428Y-14274429D01*
X8567143Y-14245857D01*
X8567143Y-14131571D01*
X8581428Y-14103000D01*
X8610000Y-14088714D01*
X8667143Y-14088714D01*
X8695714Y-14103000D01*
X8710000Y-14131571D01*
X8710000Y-14160143D01*
X8567143Y-14188714D01*
X8824286Y-14274429D02*
X8852857Y-14288714D01*
X8910000Y-14288714D01*
X8938571Y-14274429D01*
X8952857Y-14245857D01*
X8952857Y-14231571D01*
X8938571Y-14203000D01*
X8910000Y-14188714D01*
X8867143Y-14188714D01*
X8838571Y-14174429D01*
X8824286Y-14145857D01*
X8824286Y-14131571D01*
X8838571Y-14103000D01*
X8867143Y-14088714D01*
X8910000Y-14088714D01*
X8938571Y-14103000D01*
X9052857Y-14403000D02*
X9067143Y-14388714D01*
X9095714Y-14345857D01*
X9110000Y-14317286D01*
X9124286Y-14274429D01*
X9138571Y-14203000D01*
X9138571Y-14145857D01*
X9124286Y-14074429D01*
X9110000Y-14031571D01*
X9095714Y-14003000D01*
X9067143Y-13960143D01*
X9052857Y-13945857D01*
X1915000Y-14629000D02*
X1995000Y-14549000D01*
X1915000Y-14469000D01*
X1835000Y-14549000D01*
X1915000Y-14629000D01*
X2438571Y-14684714D02*
X2267143Y-14684714D01*
X2352857Y-14684714D02*
X2352857Y-14384714D01*
X2324286Y-14427571D01*
X2295714Y-14456143D01*
X2267143Y-14470429D01*
X2567143Y-14656143D02*
X2581428Y-14670429D01*
X2567143Y-14684714D01*
X2552857Y-14670429D01*
X2567143Y-14656143D01*
X2567143Y-14684714D01*
X2838571Y-14384714D02*
X2781428Y-14384714D01*
X2752857Y-14399000D01*
X2738571Y-14413286D01*
X2710000Y-14456143D01*
X2695714Y-14513286D01*
X2695714Y-14627571D01*
X2710000Y-14656143D01*
X2724286Y-14670429D01*
X2752857Y-14684714D01*
X2810000Y-14684714D01*
X2838571Y-14670429D01*
X2852857Y-14656143D01*
X2867143Y-14627571D01*
X2867143Y-14556143D01*
X2852857Y-14527571D01*
X2838571Y-14513286D01*
X2810000Y-14499000D01*
X2752857Y-14499000D01*
X2724286Y-14513286D01*
X2710000Y-14527571D01*
X2695714Y-14556143D01*
X3052857Y-14384714D02*
X3081428Y-14384714D01*
X3110000Y-14399000D01*
X3124286Y-14413286D01*
X3138571Y-14441857D01*
X3152857Y-14499000D01*
X3152857Y-14570429D01*
X3138571Y-14627571D01*
X3124286Y-14656143D01*
X3110000Y-14670429D01*
X3081428Y-14684714D01*
X3052857Y-14684714D01*
X3024286Y-14670429D01*
X3010000Y-14656143D01*
X2995714Y-14627571D01*
X2981428Y-14570429D01*
X2981428Y-14499000D01*
X2995714Y-14441857D01*
X3010000Y-14413286D01*
X3024286Y-14399000D01*
X3052857Y-14384714D01*
X3338571Y-14384714D02*
X3367143Y-14384714D01*
X3395714Y-14399000D01*
X3410000Y-14413286D01*
X3424286Y-14441857D01*
X3438571Y-14499000D01*
X3438571Y-14570429D01*
X3424286Y-14627571D01*
X3410000Y-14656143D01*
X3395714Y-14670429D01*
X3367143Y-14684714D01*
X3338571Y-14684714D01*
X3310000Y-14670429D01*
X3295714Y-14656143D01*
X3281428Y-14627571D01*
X3267143Y-14570429D01*
X3267143Y-14499000D01*
X3281428Y-14441857D01*
X3295714Y-14413286D01*
X3310000Y-14399000D01*
X3338571Y-14384714D01*
X3567143Y-14684714D02*
X3567143Y-14484714D01*
X3567143Y-14513286D02*
X3581428Y-14499000D01*
X3610000Y-14484714D01*
X3652857Y-14484714D01*
X3681428Y-14499000D01*
X3695714Y-14527571D01*
X3695714Y-14684714D01*
X3695714Y-14527571D02*
X3710000Y-14499000D01*
X3738571Y-14484714D01*
X3781428Y-14484714D01*
X3810000Y-14499000D01*
X3824286Y-14527571D01*
X3824286Y-14684714D01*
X3967143Y-14684714D02*
X3967143Y-14484714D01*
X3967143Y-14513286D02*
X3981428Y-14499000D01*
X4010000Y-14484714D01*
X4052857Y-14484714D01*
X4081428Y-14499000D01*
X4095714Y-14527571D01*
X4095714Y-14684714D01*
X4095714Y-14527571D02*
X4110000Y-14499000D01*
X4138571Y-14484714D01*
X4181428Y-14484714D01*
X4210000Y-14499000D01*
X4224286Y-14527571D01*
X4224286Y-14684714D01*
X4810000Y-14370429D02*
X4552857Y-14756143D01*
X5195714Y-14384714D02*
X5224286Y-14384714D01*
X5252857Y-14399000D01*
X5267143Y-14413286D01*
X5281428Y-14441857D01*
X5295714Y-14499000D01*
X5295714Y-14570429D01*
X5281428Y-14627571D01*
X5267143Y-14656143D01*
X5252857Y-14670429D01*
X5224286Y-14684714D01*
X5195714Y-14684714D01*
X5167143Y-14670429D01*
X5152857Y-14656143D01*
X5138571Y-14627571D01*
X5124286Y-14570429D01*
X5124286Y-14499000D01*
X5138571Y-14441857D01*
X5152857Y-14413286D01*
X5167143Y-14399000D01*
X5195714Y-14384714D01*
X5424286Y-14656143D02*
X5438571Y-14670429D01*
X5424286Y-14684714D01*
X5410000Y-14670429D01*
X5424286Y-14656143D01*
X5424286Y-14684714D01*
X5624286Y-14384714D02*
X5652857Y-14384714D01*
X5681428Y-14399000D01*
X5695714Y-14413286D01*
X5710000Y-14441857D01*
X5724286Y-14499000D01*
X5724286Y-14570429D01*
X5710000Y-14627571D01*
X5695714Y-14656143D01*
X5681428Y-14670429D01*
X5652857Y-14684714D01*
X5624286Y-14684714D01*
X5595714Y-14670429D01*
X5581428Y-14656143D01*
X5567143Y-14627571D01*
X5552857Y-14570429D01*
X5552857Y-14499000D01*
X5567143Y-14441857D01*
X5581428Y-14413286D01*
X5595714Y-14399000D01*
X5624286Y-14384714D01*
X5981428Y-14384714D02*
X5924286Y-14384714D01*
X5895714Y-14399000D01*
X5881428Y-14413286D01*
X5852857Y-14456143D01*
X5838571Y-14513286D01*
X5838571Y-14627571D01*
X5852857Y-14656143D01*
X5867143Y-14670429D01*
X5895714Y-14684714D01*
X5952857Y-14684714D01*
X5981428Y-14670429D01*
X5995714Y-14656143D01*
X6010000Y-14627571D01*
X6010000Y-14556143D01*
X5995714Y-14527571D01*
X5981428Y-14513286D01*
X5952857Y-14499000D01*
X5895714Y-14499000D01*
X5867143Y-14513286D01*
X5852857Y-14527571D01*
X5838571Y-14556143D01*
X6110000Y-14384714D02*
X6295714Y-14384714D01*
X6195714Y-14499000D01*
X6238571Y-14499000D01*
X6267143Y-14513286D01*
X6281428Y-14527571D01*
X6295714Y-14556143D01*
X6295714Y-14627571D01*
X6281428Y-14656143D01*
X6267143Y-14670429D01*
X6238571Y-14684714D01*
X6152857Y-14684714D01*
X6124286Y-14670429D01*
X6110000Y-14656143D01*
X6481428Y-14384714D02*
X6510000Y-14384714D01*
X6538571Y-14399000D01*
X6552857Y-14413286D01*
X6567143Y-14441857D01*
X6581428Y-14499000D01*
X6581428Y-14570429D01*
X6567143Y-14627571D01*
X6552857Y-14656143D01*
X6538571Y-14670429D01*
X6510000Y-14684714D01*
X6481428Y-14684714D01*
X6452857Y-14670429D01*
X6438571Y-14656143D01*
X6424286Y-14627571D01*
X6410000Y-14570429D01*
X6410000Y-14499000D01*
X6424286Y-14441857D01*
X6438571Y-14413286D01*
X6452857Y-14399000D01*
X6481428Y-14384714D01*
X6695714Y-14384714D02*
X6695714Y-14441857D01*
X6810000Y-14384714D02*
X6810000Y-14441857D01*
X7252857Y-14799000D02*
X7238571Y-14784714D01*
X7210000Y-14741857D01*
X7195714Y-14713286D01*
X7181428Y-14670429D01*
X7167143Y-14599000D01*
X7167143Y-14541857D01*
X7181428Y-14470429D01*
X7195714Y-14427571D01*
X7210000Y-14399000D01*
X7238571Y-14356143D01*
X7252857Y-14341857D01*
X7338571Y-14384714D02*
X7524286Y-14384714D01*
X7424286Y-14499000D01*
X7467143Y-14499000D01*
X7495714Y-14513286D01*
X7510000Y-14527571D01*
X7524286Y-14556143D01*
X7524286Y-14627571D01*
X7510000Y-14656143D01*
X7495714Y-14670429D01*
X7467143Y-14684714D01*
X7381428Y-14684714D01*
X7352857Y-14670429D01*
X7338571Y-14656143D01*
X7881428Y-14684714D02*
X7881428Y-14384714D01*
X8010000Y-14684714D02*
X8010000Y-14527571D01*
X7995714Y-14499000D01*
X7967143Y-14484714D01*
X7924286Y-14484714D01*
X7895714Y-14499000D01*
X7881428Y-14513286D01*
X8195714Y-14684714D02*
X8167143Y-14670429D01*
X8152857Y-14656143D01*
X8138571Y-14627571D01*
X8138571Y-14541857D01*
X8152857Y-14513286D01*
X8167143Y-14499000D01*
X8195714Y-14484714D01*
X8238571Y-14484714D01*
X8267143Y-14499000D01*
X8281428Y-14513286D01*
X8295714Y-14541857D01*
X8295714Y-14627571D01*
X8281428Y-14656143D01*
X8267143Y-14670429D01*
X8238571Y-14684714D01*
X8195714Y-14684714D01*
X8467143Y-14684714D02*
X8438571Y-14670429D01*
X8424286Y-14641857D01*
X8424286Y-14384714D01*
X8695714Y-14670429D02*
X8667143Y-14684714D01*
X8610000Y-14684714D01*
X8581428Y-14670429D01*
X8567143Y-14641857D01*
X8567143Y-14527571D01*
X8581428Y-14499000D01*
X8610000Y-14484714D01*
X8667143Y-14484714D01*
X8695714Y-14499000D01*
X8710000Y-14527571D01*
X8710000Y-14556143D01*
X8567143Y-14584714D01*
X8824286Y-14670429D02*
X8852857Y-14684714D01*
X8910000Y-14684714D01*
X8938571Y-14670429D01*
X8952857Y-14641857D01*
X8952857Y-14627571D01*
X8938571Y-14599000D01*
X8910000Y-14584714D01*
X8867143Y-14584714D01*
X8838571Y-14570429D01*
X8824286Y-14541857D01*
X8824286Y-14527571D01*
X8838571Y-14499000D01*
X8867143Y-14484714D01*
X8910000Y-14484714D01*
X8938571Y-14499000D01*
X9310000Y-14570429D02*
X9538571Y-14570429D01*
X9424286Y-14684714D02*
X9424286Y-14456143D01*
X9881428Y-14384714D02*
X10067143Y-14384714D01*
X9967143Y-14499000D01*
X10010000Y-14499000D01*
X10038571Y-14513286D01*
X10052857Y-14527571D01*
X10067143Y-14556143D01*
X10067143Y-14627571D01*
X10052857Y-14656143D01*
X10038571Y-14670429D01*
X10010000Y-14684714D01*
X9924286Y-14684714D01*
X9895714Y-14670429D01*
X9881428Y-14656143D01*
X10410000Y-14670429D02*
X10438571Y-14684714D01*
X10495714Y-14684714D01*
X10524286Y-14670429D01*
X10538571Y-14641857D01*
X10538571Y-14627571D01*
X10524286Y-14599000D01*
X10495714Y-14584714D01*
X10452857Y-14584714D01*
X10424286Y-14570429D01*
X10410000Y-14541857D01*
X10410000Y-14527571D01*
X10424286Y-14499000D01*
X10452857Y-14484714D01*
X10495714Y-14484714D01*
X10524286Y-14499000D01*
X10710000Y-14684714D02*
X10681428Y-14670429D01*
X10667143Y-14641857D01*
X10667143Y-14384714D01*
X10867143Y-14684714D02*
X10838571Y-14670429D01*
X10824286Y-14656143D01*
X10810000Y-14627571D01*
X10810000Y-14541857D01*
X10824286Y-14513286D01*
X10838571Y-14499000D01*
X10867143Y-14484714D01*
X10910000Y-14484714D01*
X10938571Y-14499000D01*
X10952857Y-14513286D01*
X10967143Y-14541857D01*
X10967143Y-14627571D01*
X10952857Y-14656143D01*
X10938571Y-14670429D01*
X10910000Y-14684714D01*
X10867143Y-14684714D01*
X11052857Y-14484714D02*
X11167143Y-14484714D01*
X11095714Y-14384714D02*
X11095714Y-14641857D01*
X11110000Y-14670429D01*
X11138571Y-14684714D01*
X11167143Y-14684714D01*
X11252857Y-14670429D02*
X11281428Y-14684714D01*
X11338571Y-14684714D01*
X11367143Y-14670429D01*
X11381428Y-14641857D01*
X11381428Y-14627571D01*
X11367143Y-14599000D01*
X11338571Y-14584714D01*
X11295714Y-14584714D01*
X11267143Y-14570429D01*
X11252857Y-14541857D01*
X11252857Y-14527571D01*
X11267143Y-14499000D01*
X11295714Y-14484714D01*
X11338571Y-14484714D01*
X11367143Y-14499000D01*
X11481428Y-14799000D02*
X11495714Y-14784714D01*
X11524286Y-14741857D01*
X11538571Y-14713286D01*
X11552857Y-14670429D01*
X11567143Y-14599000D01*
X11567143Y-14541857D01*
X11552857Y-14470429D01*
X11538571Y-14427571D01*
X11524286Y-14399000D01*
X11495714Y-14356143D01*
X11481428Y-14341857D01*
X1795000Y-14845000D02*
X1995000Y-15045000D01*
X1995000Y-14845000D02*
X1795000Y-15045000D01*
X1995000Y-14945000D02*
G75*
G03*
X1995000Y-14945000I-100000J0D01*
G01*
X2267143Y-14809286D02*
X2281428Y-14795000D01*
X2310000Y-14780714D01*
X2381428Y-14780714D01*
X2410000Y-14795000D01*
X2424286Y-14809286D01*
X2438571Y-14837857D01*
X2438571Y-14866429D01*
X2424286Y-14909286D01*
X2252857Y-15080714D01*
X2438571Y-15080714D01*
X2567143Y-15052143D02*
X2581428Y-15066429D01*
X2567143Y-15080714D01*
X2552857Y-15066429D01*
X2567143Y-15052143D01*
X2567143Y-15080714D01*
X2767143Y-14780714D02*
X2795714Y-14780714D01*
X2824286Y-14795000D01*
X2838571Y-14809286D01*
X2852857Y-14837857D01*
X2867143Y-14895000D01*
X2867143Y-14966429D01*
X2852857Y-15023571D01*
X2838571Y-15052143D01*
X2824286Y-15066429D01*
X2795714Y-15080714D01*
X2767143Y-15080714D01*
X2738571Y-15066429D01*
X2724286Y-15052143D01*
X2710000Y-15023571D01*
X2695714Y-14966429D01*
X2695714Y-14895000D01*
X2710000Y-14837857D01*
X2724286Y-14809286D01*
X2738571Y-14795000D01*
X2767143Y-14780714D01*
X3052857Y-14780714D02*
X3081428Y-14780714D01*
X3110000Y-14795000D01*
X3124286Y-14809286D01*
X3138571Y-14837857D01*
X3152857Y-14895000D01*
X3152857Y-14966429D01*
X3138571Y-15023571D01*
X3124286Y-15052143D01*
X3110000Y-15066429D01*
X3081428Y-15080714D01*
X3052857Y-15080714D01*
X3024286Y-15066429D01*
X3010000Y-15052143D01*
X2995714Y-15023571D01*
X2981428Y-14966429D01*
X2981428Y-14895000D01*
X2995714Y-14837857D01*
X3010000Y-14809286D01*
X3024286Y-14795000D01*
X3052857Y-14780714D01*
X3338571Y-14780714D02*
X3367143Y-14780714D01*
X3395714Y-14795000D01*
X3410000Y-14809286D01*
X3424286Y-14837857D01*
X3438571Y-14895000D01*
X3438571Y-14966429D01*
X3424286Y-15023571D01*
X3410000Y-15052143D01*
X3395714Y-15066429D01*
X3367143Y-15080714D01*
X3338571Y-15080714D01*
X3310000Y-15066429D01*
X3295714Y-15052143D01*
X3281428Y-15023571D01*
X3267143Y-14966429D01*
X3267143Y-14895000D01*
X3281428Y-14837857D01*
X3295714Y-14809286D01*
X3310000Y-14795000D01*
X3338571Y-14780714D01*
X3567143Y-15080714D02*
X3567143Y-14880714D01*
X3567143Y-14909286D02*
X3581428Y-14895000D01*
X3610000Y-14880714D01*
X3652857Y-14880714D01*
X3681428Y-14895000D01*
X3695714Y-14923571D01*
X3695714Y-15080714D01*
X3695714Y-14923571D02*
X3710000Y-14895000D01*
X3738571Y-14880714D01*
X3781428Y-14880714D01*
X3810000Y-14895000D01*
X3824286Y-14923571D01*
X3824286Y-15080714D01*
X3967143Y-15080714D02*
X3967143Y-14880714D01*
X3967143Y-14909286D02*
X3981428Y-14895000D01*
X4010000Y-14880714D01*
X4052857Y-14880714D01*
X4081428Y-14895000D01*
X4095714Y-14923571D01*
X4095714Y-15080714D01*
X4095714Y-14923571D02*
X4110000Y-14895000D01*
X4138571Y-14880714D01*
X4181428Y-14880714D01*
X4210000Y-14895000D01*
X4224286Y-14923571D01*
X4224286Y-15080714D01*
X4810000Y-14766429D02*
X4552857Y-15152143D01*
X5195714Y-14780714D02*
X5224286Y-14780714D01*
X5252857Y-14795000D01*
X5267143Y-14809286D01*
X5281428Y-14837857D01*
X5295714Y-14895000D01*
X5295714Y-14966429D01*
X5281428Y-15023571D01*
X5267143Y-15052143D01*
X5252857Y-15066429D01*
X5224286Y-15080714D01*
X5195714Y-15080714D01*
X5167143Y-15066429D01*
X5152857Y-15052143D01*
X5138571Y-15023571D01*
X5124286Y-14966429D01*
X5124286Y-14895000D01*
X5138571Y-14837857D01*
X5152857Y-14809286D01*
X5167143Y-14795000D01*
X5195714Y-14780714D01*
X5424286Y-15052143D02*
X5438571Y-15066429D01*
X5424286Y-15080714D01*
X5410000Y-15066429D01*
X5424286Y-15052143D01*
X5424286Y-15080714D01*
X5624286Y-14780714D02*
X5652857Y-14780714D01*
X5681428Y-14795000D01*
X5695714Y-14809286D01*
X5710000Y-14837857D01*
X5724286Y-14895000D01*
X5724286Y-14966429D01*
X5710000Y-15023571D01*
X5695714Y-15052143D01*
X5681428Y-15066429D01*
X5652857Y-15080714D01*
X5624286Y-15080714D01*
X5595714Y-15066429D01*
X5581428Y-15052143D01*
X5567143Y-15023571D01*
X5552857Y-14966429D01*
X5552857Y-14895000D01*
X5567143Y-14837857D01*
X5581428Y-14809286D01*
X5595714Y-14795000D01*
X5624286Y-14780714D01*
X5824286Y-14780714D02*
X6024286Y-14780714D01*
X5895714Y-15080714D01*
X6181428Y-14909286D02*
X6152857Y-14895000D01*
X6138571Y-14880714D01*
X6124286Y-14852143D01*
X6124286Y-14837857D01*
X6138571Y-14809286D01*
X6152857Y-14795000D01*
X6181428Y-14780714D01*
X6238571Y-14780714D01*
X6267143Y-14795000D01*
X6281428Y-14809286D01*
X6295714Y-14837857D01*
X6295714Y-14852143D01*
X6281428Y-14880714D01*
X6267143Y-14895000D01*
X6238571Y-14909286D01*
X6181428Y-14909286D01*
X6152857Y-14923571D01*
X6138571Y-14937857D01*
X6124286Y-14966429D01*
X6124286Y-15023571D01*
X6138571Y-15052143D01*
X6152857Y-15066429D01*
X6181428Y-15080714D01*
X6238571Y-15080714D01*
X6267143Y-15066429D01*
X6281428Y-15052143D01*
X6295714Y-15023571D01*
X6295714Y-14966429D01*
X6281428Y-14937857D01*
X6267143Y-14923571D01*
X6238571Y-14909286D01*
X6395714Y-14780714D02*
X6595714Y-14780714D01*
X6467143Y-15080714D01*
X6695714Y-14780714D02*
X6695714Y-14837857D01*
X6810000Y-14780714D02*
X6810000Y-14837857D01*
X7252857Y-15195000D02*
X7238571Y-15180714D01*
X7210000Y-15137857D01*
X7195714Y-15109286D01*
X7181428Y-15066429D01*
X7167143Y-14995000D01*
X7167143Y-14937857D01*
X7181428Y-14866429D01*
X7195714Y-14823571D01*
X7210000Y-14795000D01*
X7238571Y-14752143D01*
X7252857Y-14737857D01*
X7338571Y-14780714D02*
X7538571Y-14780714D01*
X7410000Y-15080714D01*
X7881428Y-15080714D02*
X7881428Y-14780714D01*
X8010000Y-15080714D02*
X8010000Y-14923571D01*
X7995714Y-14895000D01*
X7967143Y-14880714D01*
X7924286Y-14880714D01*
X7895714Y-14895000D01*
X7881428Y-14909286D01*
X8195714Y-15080714D02*
X8167143Y-15066429D01*
X8152857Y-15052143D01*
X8138571Y-15023571D01*
X8138571Y-14937857D01*
X8152857Y-14909286D01*
X8167143Y-14895000D01*
X8195714Y-14880714D01*
X8238571Y-14880714D01*
X8267143Y-14895000D01*
X8281428Y-14909286D01*
X8295714Y-14937857D01*
X8295714Y-15023571D01*
X8281428Y-15052143D01*
X8267143Y-15066429D01*
X8238571Y-15080714D01*
X8195714Y-15080714D01*
X8467143Y-15080714D02*
X8438571Y-15066429D01*
X8424286Y-15037857D01*
X8424286Y-14780714D01*
X8695714Y-15066429D02*
X8667143Y-15080714D01*
X8610000Y-15080714D01*
X8581428Y-15066429D01*
X8567143Y-15037857D01*
X8567143Y-14923571D01*
X8581428Y-14895000D01*
X8610000Y-14880714D01*
X8667143Y-14880714D01*
X8695714Y-14895000D01*
X8710000Y-14923571D01*
X8710000Y-14952143D01*
X8567143Y-14980714D01*
X8824286Y-15066429D02*
X8852857Y-15080714D01*
X8910000Y-15080714D01*
X8938571Y-15066429D01*
X8952857Y-15037857D01*
X8952857Y-15023571D01*
X8938571Y-14995000D01*
X8910000Y-14980714D01*
X8867143Y-14980714D01*
X8838571Y-14966429D01*
X8824286Y-14937857D01*
X8824286Y-14923571D01*
X8838571Y-14895000D01*
X8867143Y-14880714D01*
X8910000Y-14880714D01*
X8938571Y-14895000D01*
X9052857Y-15195000D02*
X9067143Y-15180714D01*
X9095714Y-15137857D01*
X9110000Y-15109286D01*
X9124286Y-15066429D01*
X9138571Y-14995000D01*
X9138571Y-14937857D01*
X9124286Y-14866429D01*
X9110000Y-14823571D01*
X9095714Y-14795000D01*
X9067143Y-14752143D01*
X9052857Y-14737857D01*
X1675000Y-15181000D02*
X1995000Y-15501000D01*
X1995000Y-15181000D02*
X1675000Y-15501000D01*
X1835000Y-15181000D02*
X1835000Y-15501000D01*
X1675000Y-15341000D02*
X1995000Y-15341000D01*
X2252857Y-15176714D02*
X2438571Y-15176714D01*
X2338571Y-15291000D01*
X2381428Y-15291000D01*
X2410000Y-15305286D01*
X2424286Y-15319571D01*
X2438571Y-15348143D01*
X2438571Y-15419571D01*
X2424286Y-15448143D01*
X2410000Y-15462429D01*
X2381428Y-15476714D01*
X2295714Y-15476714D01*
X2267143Y-15462429D01*
X2252857Y-15448143D01*
X2567143Y-15448143D02*
X2581428Y-15462429D01*
X2567143Y-15476714D01*
X2552857Y-15462429D01*
X2567143Y-15448143D01*
X2567143Y-15476714D01*
X2695714Y-15205286D02*
X2710000Y-15191000D01*
X2738571Y-15176714D01*
X2810000Y-15176714D01*
X2838571Y-15191000D01*
X2852857Y-15205286D01*
X2867143Y-15233857D01*
X2867143Y-15262429D01*
X2852857Y-15305286D01*
X2681428Y-15476714D01*
X2867143Y-15476714D01*
X3052857Y-15176714D02*
X3081428Y-15176714D01*
X3110000Y-15191000D01*
X3124286Y-15205286D01*
X3138571Y-15233857D01*
X3152857Y-15291000D01*
X3152857Y-15362429D01*
X3138571Y-15419571D01*
X3124286Y-15448143D01*
X3110000Y-15462429D01*
X3081428Y-15476714D01*
X3052857Y-15476714D01*
X3024286Y-15462429D01*
X3010000Y-15448143D01*
X2995714Y-15419571D01*
X2981428Y-15362429D01*
X2981428Y-15291000D01*
X2995714Y-15233857D01*
X3010000Y-15205286D01*
X3024286Y-15191000D01*
X3052857Y-15176714D01*
X3338571Y-15176714D02*
X3367143Y-15176714D01*
X3395714Y-15191000D01*
X3410000Y-15205286D01*
X3424286Y-15233857D01*
X3438571Y-15291000D01*
X3438571Y-15362429D01*
X3424286Y-15419571D01*
X3410000Y-15448143D01*
X3395714Y-15462429D01*
X3367143Y-15476714D01*
X3338571Y-15476714D01*
X3310000Y-15462429D01*
X3295714Y-15448143D01*
X3281428Y-15419571D01*
X3267143Y-15362429D01*
X3267143Y-15291000D01*
X3281428Y-15233857D01*
X3295714Y-15205286D01*
X3310000Y-15191000D01*
X3338571Y-15176714D01*
X3567143Y-15476714D02*
X3567143Y-15276714D01*
X3567143Y-15305286D02*
X3581428Y-15291000D01*
X3610000Y-15276714D01*
X3652857Y-15276714D01*
X3681428Y-15291000D01*
X3695714Y-15319571D01*
X3695714Y-15476714D01*
X3695714Y-15319571D02*
X3710000Y-15291000D01*
X3738571Y-15276714D01*
X3781428Y-15276714D01*
X3810000Y-15291000D01*
X3824286Y-15319571D01*
X3824286Y-15476714D01*
X3967143Y-15476714D02*
X3967143Y-15276714D01*
X3967143Y-15305286D02*
X3981428Y-15291000D01*
X4010000Y-15276714D01*
X4052857Y-15276714D01*
X4081428Y-15291000D01*
X4095714Y-15319571D01*
X4095714Y-15476714D01*
X4095714Y-15319571D02*
X4110000Y-15291000D01*
X4138571Y-15276714D01*
X4181428Y-15276714D01*
X4210000Y-15291000D01*
X4224286Y-15319571D01*
X4224286Y-15476714D01*
X4810000Y-15162429D02*
X4552857Y-15548143D01*
X5195714Y-15176714D02*
X5224286Y-15176714D01*
X5252857Y-15191000D01*
X5267143Y-15205286D01*
X5281428Y-15233857D01*
X5295714Y-15291000D01*
X5295714Y-15362429D01*
X5281428Y-15419571D01*
X5267143Y-15448143D01*
X5252857Y-15462429D01*
X5224286Y-15476714D01*
X5195714Y-15476714D01*
X5167143Y-15462429D01*
X5152857Y-15448143D01*
X5138571Y-15419571D01*
X5124286Y-15362429D01*
X5124286Y-15291000D01*
X5138571Y-15233857D01*
X5152857Y-15205286D01*
X5167143Y-15191000D01*
X5195714Y-15176714D01*
X5424286Y-15448143D02*
X5438571Y-15462429D01*
X5424286Y-15476714D01*
X5410000Y-15462429D01*
X5424286Y-15448143D01*
X5424286Y-15476714D01*
X5724286Y-15476714D02*
X5552857Y-15476714D01*
X5638571Y-15476714D02*
X5638571Y-15176714D01*
X5610000Y-15219571D01*
X5581428Y-15248143D01*
X5552857Y-15262429D01*
X5838571Y-15205286D02*
X5852857Y-15191000D01*
X5881428Y-15176714D01*
X5952857Y-15176714D01*
X5981428Y-15191000D01*
X5995714Y-15205286D01*
X6010000Y-15233857D01*
X6010000Y-15262429D01*
X5995714Y-15305286D01*
X5824286Y-15476714D01*
X6010000Y-15476714D01*
X6267143Y-15176714D02*
X6210000Y-15176714D01*
X6181428Y-15191000D01*
X6167143Y-15205286D01*
X6138571Y-15248143D01*
X6124286Y-15305286D01*
X6124286Y-15419571D01*
X6138571Y-15448143D01*
X6152857Y-15462429D01*
X6181428Y-15476714D01*
X6238571Y-15476714D01*
X6267143Y-15462429D01*
X6281428Y-15448143D01*
X6295714Y-15419571D01*
X6295714Y-15348143D01*
X6281428Y-15319571D01*
X6267143Y-15305286D01*
X6238571Y-15291000D01*
X6181428Y-15291000D01*
X6152857Y-15305286D01*
X6138571Y-15319571D01*
X6124286Y-15348143D01*
X6481428Y-15176714D02*
X6510000Y-15176714D01*
X6538571Y-15191000D01*
X6552857Y-15205286D01*
X6567143Y-15233857D01*
X6581428Y-15291000D01*
X6581428Y-15362429D01*
X6567143Y-15419571D01*
X6552857Y-15448143D01*
X6538571Y-15462429D01*
X6510000Y-15476714D01*
X6481428Y-15476714D01*
X6452857Y-15462429D01*
X6438571Y-15448143D01*
X6424286Y-15419571D01*
X6410000Y-15362429D01*
X6410000Y-15291000D01*
X6424286Y-15233857D01*
X6438571Y-15205286D01*
X6452857Y-15191000D01*
X6481428Y-15176714D01*
X6695714Y-15176714D02*
X6695714Y-15233857D01*
X6810000Y-15176714D02*
X6810000Y-15233857D01*
X7252857Y-15591000D02*
X7238571Y-15576714D01*
X7210000Y-15533857D01*
X7195714Y-15505286D01*
X7181428Y-15462429D01*
X7167143Y-15391000D01*
X7167143Y-15333857D01*
X7181428Y-15262429D01*
X7195714Y-15219571D01*
X7210000Y-15191000D01*
X7238571Y-15148143D01*
X7252857Y-15133857D01*
X7495714Y-15276714D02*
X7495714Y-15476714D01*
X7424286Y-15162429D02*
X7352857Y-15376714D01*
X7538571Y-15376714D01*
X7881428Y-15476714D02*
X7881428Y-15176714D01*
X8010000Y-15476714D02*
X8010000Y-15319571D01*
X7995714Y-15291000D01*
X7967143Y-15276714D01*
X7924286Y-15276714D01*
X7895714Y-15291000D01*
X7881428Y-15305286D01*
X8195714Y-15476714D02*
X8167143Y-15462429D01*
X8152857Y-15448143D01*
X8138571Y-15419571D01*
X8138571Y-15333857D01*
X8152857Y-15305286D01*
X8167143Y-15291000D01*
X8195714Y-15276714D01*
X8238571Y-15276714D01*
X8267143Y-15291000D01*
X8281428Y-15305286D01*
X8295714Y-15333857D01*
X8295714Y-15419571D01*
X8281428Y-15448143D01*
X8267143Y-15462429D01*
X8238571Y-15476714D01*
X8195714Y-15476714D01*
X8467143Y-15476714D02*
X8438571Y-15462429D01*
X8424286Y-15433857D01*
X8424286Y-15176714D01*
X8695714Y-15462429D02*
X8667143Y-15476714D01*
X8610000Y-15476714D01*
X8581428Y-15462429D01*
X8567143Y-15433857D01*
X8567143Y-15319571D01*
X8581428Y-15291000D01*
X8610000Y-15276714D01*
X8667143Y-15276714D01*
X8695714Y-15291000D01*
X8710000Y-15319571D01*
X8710000Y-15348143D01*
X8567143Y-15376714D01*
X8824286Y-15462429D02*
X8852857Y-15476714D01*
X8910000Y-15476714D01*
X8938571Y-15462429D01*
X8952857Y-15433857D01*
X8952857Y-15419571D01*
X8938571Y-15391000D01*
X8910000Y-15376714D01*
X8867143Y-15376714D01*
X8838571Y-15362429D01*
X8824286Y-15333857D01*
X8824286Y-15319571D01*
X8838571Y-15291000D01*
X8867143Y-15276714D01*
X8910000Y-15276714D01*
X8938571Y-15291000D01*
X9052857Y-15591000D02*
X9067143Y-15576714D01*
X9095714Y-15533857D01*
X9110000Y-15505286D01*
X9124286Y-15462429D01*
X9138571Y-15391000D01*
X9138571Y-15333857D01*
X9124286Y-15262429D01*
X9110000Y-15219571D01*
X9095714Y-15191000D01*
X9067143Y-15148143D01*
X9052857Y-15133857D01*
M02*
