M48
; DRILL file {KiCad 5.1.10} date Sun Jan 16 13:44:42 2022
; FORMAT={-:-/ absolute / metric / decimal}
; #@! TF.CreationDate,2022-01-16T13:44:42+02:00
; #@! TF.GenerationSoftware,Kicad,Pcbnew,5.1.10
; #@! TF.FileFunction,Plated,1,2,PTH
FMAT,2
METRIC
T1C0.400
T2C0.800
T3C1.000
T4C1.100
T5C1.600
T6C2.000
T7C3.200
%
G90
G05
T1
X35.2Y-88.0
X35.3Y-83.5
X38.95Y-73.35
X39.3Y-76.1
X44.7Y-56.0
X48.0Y-62.1
X48.9Y-62.7
X50.0Y-62.9
X51.1Y-62.9
X58.3Y-72.1
X74.9Y-69.6
X74.9Y-70.7
X74.9Y-71.9
X74.9Y-74.3
X74.9Y-75.4
X75.4Y-76.5
X76.2Y-52.5
X77.0Y-57.8
X81.1Y-83.2
X83.4Y-47.2
X83.4Y-54.9
X83.4Y-57.8
X83.5Y-52.4
X86.2Y-80.9
X86.5Y-83.6
X86.8Y-55.8
X86.9Y-58.4
X89.7Y-62.6
X91.8Y-47.2
X92.5Y-72.7
X92.5Y-90.7
X95.7Y-65.6
X100.3Y-71.6
X101.5Y-47.2
T2
X45.2Y-100.5
X45.2Y-103.0
X53.3Y-46.39
X53.3Y-48.93
X53.3Y-51.47
X53.3Y-54.01
X53.3Y-56.55
X53.3Y-59.09
X53.3Y-61.63
X53.3Y-64.17
X53.3Y-66.71
X53.3Y-69.25
X53.3Y-71.79
X53.3Y-74.33
X53.3Y-76.87
X53.3Y-79.41
X53.3Y-81.95
X53.3Y-84.49
X53.3Y-87.03
X53.3Y-89.57
X53.3Y-92.11
X53.3Y-94.65
X54.2Y-100.5
X54.2Y-103.0
X63.3Y-100.6
X63.3Y-103.1
X78.7Y-46.39
X78.7Y-48.93
X78.7Y-51.47
X78.7Y-54.01
X78.7Y-56.55
X78.7Y-59.09
X78.7Y-61.63
X78.7Y-64.17
X78.7Y-66.71
X78.7Y-69.25
X78.7Y-71.79
X78.7Y-74.33
X78.7Y-76.87
X78.7Y-79.41
X78.7Y-81.95
X78.7Y-84.49
X78.7Y-87.03
X78.7Y-89.57
X78.7Y-92.11
X78.7Y-94.65
X84.4Y-62.4
X84.4Y-64.4
X84.4Y-66.4
X84.4Y-68.4
X94.0Y-94.0
X94.0Y-96.5
X94.0Y-102.5
X94.0Y-105.0
X100.0Y-94.0
X100.0Y-96.5
X106.0Y-94.0
X106.0Y-96.5
T3
X25.25Y-54.71
X25.25Y-57.25
X25.25Y-66.71
X25.25Y-69.25
X25.25Y-80.9
X25.25Y-85.9
X25.25Y-90.9
X27.79Y-54.71
X27.79Y-57.25
X27.79Y-66.71
X27.79Y-69.25
X27.79Y-80.9
X27.79Y-85.9
X27.79Y-90.9
X32.4Y-66.8
X34.5Y-59.3
X34.6Y-66.0
X36.3Y-59.3
X36.7Y-65.8
X37.8Y-48.86
X37.8Y-51.4
X38.2Y-59.4
X47.05Y-67.625
X48.45Y-68.9
X96.0Y-59.9
X96.3Y-85.1
X97.7Y-53.3
X97.7Y-78.6
X98.1Y-60.0
X98.6Y-85.1
X99.6Y-53.3
X100.0Y-60.0
X100.4Y-77.7
X101.6Y-52.324
X102.0Y-82.0
X102.3Y-56.8
X102.9Y-77.2
X105.785Y-74.25
X105.785Y-76.79
X105.785Y-87.25
X105.785Y-89.79
X106.035Y-49.0
X106.035Y-51.54
X106.035Y-62.0
X106.035Y-64.54
X108.325Y-74.25
X108.325Y-76.79
X108.325Y-87.25
X108.325Y-89.79
X108.575Y-49.0
X108.575Y-51.54
X108.575Y-62.0
X108.575Y-64.54
T4
X73.92Y-100.5
X76.46Y-100.5
X79.0Y-100.5
X108.0Y-103.0
X110.54Y-103.0
X113.08Y-103.0
T5
X83.8Y-110.0
X83.8Y-116.0
X88.5Y-113.0
T6
X22.7Y-99.2
X25.3Y-101.8
X27.8Y-104.3
X49.5Y-57.7
X73.2Y-112.8
X76.7Y-112.8
X80.0Y-112.8
T7
X25.0Y-45.0
X25.0Y-115.0
X115.0Y-45.0
X115.0Y-115.0
T5
X97.2Y-110.0G85X98.4Y-110.0
G05
X97.2Y-116.5G85X98.4Y-116.5
G05
X102.3Y-112.15G85X102.3Y-113.35
G05
T0
M30
