G04 #@! TF.GenerationSoftware,KiCad,Pcbnew,5.1.10*
G04 #@! TF.CreationDate,2022-01-16T13:43:41+02:00*
G04 #@! TF.ProjectId,horse_feeder,686f7273-655f-4666-9565-6465722e6b69,rev?*
G04 #@! TF.SameCoordinates,Original*
G04 #@! TF.FileFunction,Legend,Bot*
G04 #@! TF.FilePolarity,Positive*
%FSLAX46Y46*%
G04 Gerber Fmt 4.6, Leading zero omitted, Abs format (unit mm)*
G04 Created by KiCad (PCBNEW 5.1.10) date 2022-01-16 13:43:41*
%MOMM*%
%LPD*%
G01*
G04 APERTURE LIST*
%ADD10C,0.120000*%
%ADD11C,0.150000*%
%ADD12C,5.600000*%
%ADD13C,2.600000*%
%ADD14R,2.600000X2.600000*%
%ADD15R,3.800000X2.600000*%
%ADD16O,3.800000X2.600000*%
%ADD17O,2.600000X3.800000*%
%ADD18R,1.600000X1.600000*%
%ADD19C,1.600000*%
%ADD20R,1.350000X1.350000*%
%ADD21O,1.350000X1.350000*%
%ADD22O,1.700000X1.700000*%
%ADD23R,1.700000X1.700000*%
%ADD24O,1.905000X2.000000*%
%ADD25R,1.905000X2.000000*%
%ADD26O,2.000000X1.200000*%
G04 APERTURE END LIST*
D10*
X57438748Y-91010000D02*
X57961252Y-91010000D01*
X57438748Y-89590000D02*
X57961252Y-89590000D01*
X57463748Y-93590000D02*
X57986252Y-93590000D01*
X57463748Y-95010000D02*
X57986252Y-95010000D01*
D11*
X58342857Y-88657142D02*
X58390476Y-88704761D01*
X58533333Y-88752380D01*
X58628571Y-88752380D01*
X58771428Y-88704761D01*
X58866666Y-88609523D01*
X58914285Y-88514285D01*
X58961904Y-88323809D01*
X58961904Y-88180952D01*
X58914285Y-87990476D01*
X58866666Y-87895238D01*
X58771428Y-87800000D01*
X58628571Y-87752380D01*
X58533333Y-87752380D01*
X58390476Y-87800000D01*
X58342857Y-87847619D01*
X57390476Y-88752380D02*
X57961904Y-88752380D01*
X57676190Y-88752380D02*
X57676190Y-87752380D01*
X57771428Y-87895238D01*
X57866666Y-87990476D01*
X57961904Y-88038095D01*
X57009523Y-87847619D02*
X56961904Y-87800000D01*
X56866666Y-87752380D01*
X56628571Y-87752380D01*
X56533333Y-87800000D01*
X56485714Y-87847619D01*
X56438095Y-87942857D01*
X56438095Y-88038095D01*
X56485714Y-88180952D01*
X57057142Y-88752380D01*
X56438095Y-88752380D01*
X58342857Y-92657142D02*
X58390476Y-92704761D01*
X58533333Y-92752380D01*
X58628571Y-92752380D01*
X58771428Y-92704761D01*
X58866666Y-92609523D01*
X58914285Y-92514285D01*
X58961904Y-92323809D01*
X58961904Y-92180952D01*
X58914285Y-91990476D01*
X58866666Y-91895238D01*
X58771428Y-91800000D01*
X58628571Y-91752380D01*
X58533333Y-91752380D01*
X58390476Y-91800000D01*
X58342857Y-91847619D01*
X57390476Y-92752380D02*
X57961904Y-92752380D01*
X57676190Y-92752380D02*
X57676190Y-91752380D01*
X57771428Y-91895238D01*
X57866666Y-91990476D01*
X57961904Y-92038095D01*
X57057142Y-91752380D02*
X56438095Y-91752380D01*
X56771428Y-92133333D01*
X56628571Y-92133333D01*
X56533333Y-92180952D01*
X56485714Y-92228571D01*
X56438095Y-92323809D01*
X56438095Y-92561904D01*
X56485714Y-92657142D01*
X56533333Y-92704761D01*
X56628571Y-92752380D01*
X56914285Y-92752380D01*
X57009523Y-92704761D01*
X57057142Y-92657142D01*
%LPC*%
D12*
X115000000Y-45000000D03*
X25000000Y-45000000D03*
X25000000Y-115000000D03*
X115000000Y-115000000D03*
D13*
X88500000Y-113000000D03*
X83800000Y-116000000D03*
D14*
X83800000Y-110000000D03*
D15*
X97800000Y-110000000D03*
D16*
X97800000Y-116500000D03*
D17*
X102300000Y-112750000D03*
D18*
X94000000Y-105000000D03*
D19*
X94000000Y-102500000D03*
D18*
X100000000Y-94000000D03*
D19*
X100000000Y-96500000D03*
D18*
X106000000Y-94000000D03*
D19*
X106000000Y-96500000D03*
X94000000Y-96500000D03*
D18*
X94000000Y-94000000D03*
D19*
X63300000Y-103100000D03*
D18*
X63300000Y-100600000D03*
X54200000Y-100500000D03*
D19*
X54200000Y-103000000D03*
X45200000Y-103000000D03*
D18*
X45200000Y-100500000D03*
G36*
G01*
X56100000Y-90750001D02*
X56100000Y-89849999D01*
G75*
G02*
X56349999Y-89600000I249999J0D01*
G01*
X57000001Y-89600000D01*
G75*
G02*
X57250000Y-89849999I0J-249999D01*
G01*
X57250000Y-90750001D01*
G75*
G02*
X57000001Y-91000000I-249999J0D01*
G01*
X56349999Y-91000000D01*
G75*
G02*
X56100000Y-90750001I0J249999D01*
G01*
G37*
G36*
G01*
X58150000Y-90750001D02*
X58150000Y-89849999D01*
G75*
G02*
X58399999Y-89600000I249999J0D01*
G01*
X59050001Y-89600000D01*
G75*
G02*
X59300000Y-89849999I0J-249999D01*
G01*
X59300000Y-90750001D01*
G75*
G02*
X59050001Y-91000000I-249999J0D01*
G01*
X58399999Y-91000000D01*
G75*
G02*
X58150000Y-90750001I0J249999D01*
G01*
G37*
G36*
G01*
X58175000Y-94750001D02*
X58175000Y-93849999D01*
G75*
G02*
X58424999Y-93600000I249999J0D01*
G01*
X59075001Y-93600000D01*
G75*
G02*
X59325000Y-93849999I0J-249999D01*
G01*
X59325000Y-94750001D01*
G75*
G02*
X59075001Y-95000000I-249999J0D01*
G01*
X58424999Y-95000000D01*
G75*
G02*
X58175000Y-94750001I0J249999D01*
G01*
G37*
G36*
G01*
X56125000Y-94750001D02*
X56125000Y-93849999D01*
G75*
G02*
X56374999Y-93600000I249999J0D01*
G01*
X57025001Y-93600000D01*
G75*
G02*
X57275000Y-93849999I0J-249999D01*
G01*
X57275000Y-94750001D01*
G75*
G02*
X57025001Y-95000000I-249999J0D01*
G01*
X56374999Y-95000000D01*
G75*
G02*
X56125000Y-94750001I0J249999D01*
G01*
G37*
D20*
X84400000Y-62400000D03*
D21*
X84400000Y-64400000D03*
X84400000Y-66400000D03*
X84400000Y-68400000D03*
D22*
X106035000Y-51540000D03*
X106035000Y-49000000D03*
X108575000Y-51540000D03*
D23*
X108575000Y-49000000D03*
D22*
X27790000Y-66710000D03*
X27790000Y-69250000D03*
X25250000Y-66710000D03*
D23*
X25250000Y-69250000D03*
D22*
X105785000Y-76790000D03*
X105785000Y-74250000D03*
X108325000Y-76790000D03*
D23*
X108325000Y-74250000D03*
X108325000Y-87250000D03*
D22*
X108325000Y-89790000D03*
X105785000Y-87250000D03*
X105785000Y-89790000D03*
D23*
X108575000Y-62000000D03*
D22*
X108575000Y-64540000D03*
X106035000Y-62000000D03*
X106035000Y-64540000D03*
D23*
X25250000Y-57250000D03*
D22*
X25250000Y-54710000D03*
X27790000Y-57250000D03*
X27790000Y-54710000D03*
X37800000Y-48860000D03*
D23*
X37800000Y-51400000D03*
X25250000Y-90900000D03*
D22*
X27790000Y-90900000D03*
X27790000Y-85900000D03*
D23*
X25250000Y-85900000D03*
X25250000Y-80900000D03*
D22*
X27790000Y-80900000D03*
D24*
X113080000Y-103000000D03*
X110540000Y-103000000D03*
D25*
X108000000Y-103000000D03*
X79000000Y-100500000D03*
D24*
X76460000Y-100500000D03*
X73920000Y-100500000D03*
D26*
X78700000Y-46390000D03*
X53300000Y-46390000D03*
X78700000Y-48930000D03*
X53300000Y-48930000D03*
X78700000Y-51470000D03*
X53300000Y-51470000D03*
X78700000Y-54010000D03*
X53300000Y-54010000D03*
X78700000Y-56550000D03*
X53300000Y-56550000D03*
X78700000Y-59090000D03*
X53300000Y-59090000D03*
X78700000Y-61630000D03*
X53300000Y-61630000D03*
X78700000Y-64170000D03*
X53300000Y-64170000D03*
X78700000Y-66710000D03*
X53300000Y-66710000D03*
X78700000Y-69250000D03*
X53300000Y-69250000D03*
X78700000Y-71790000D03*
X53300000Y-71790000D03*
X78700000Y-74330000D03*
X53300000Y-74330000D03*
X78700000Y-76870000D03*
X53300000Y-76870000D03*
X78700000Y-79410000D03*
X53300000Y-79410000D03*
X78700000Y-81950000D03*
X53300000Y-81950000D03*
X78700000Y-84490000D03*
X53300000Y-84490000D03*
X78700000Y-87030000D03*
X53300000Y-87030000D03*
X78700000Y-89570000D03*
X53300000Y-89570000D03*
X78700000Y-92110000D03*
X53300000Y-92110000D03*
X78700000Y-94650000D03*
X53300000Y-94650000D03*
M02*
