G04 #@! TF.GenerationSoftware,KiCad,Pcbnew,7.0.3*
G04 #@! TF.CreationDate,2023-07-04T11:33:37+03:00*
G04 #@! TF.ProjectId,horse_feeder,686f7273-655f-4666-9565-6465722e6b69,rev?*
G04 #@! TF.SameCoordinates,Original*
G04 #@! TF.FileFunction,Soldermask,Top*
G04 #@! TF.FilePolarity,Negative*
%FSLAX46Y46*%
G04 Gerber Fmt 4.6, Leading zero omitted, Abs format (unit mm)*
G04 Created by KiCad (PCBNEW 7.0.3) date 2023-07-04 11:33:37*
%MOMM*%
%LPD*%
G01*
G04 APERTURE LIST*
G04 Aperture macros list*
%AMRoundRect*
0 Rectangle with rounded corners*
0 $1 Rounding radius*
0 $2 $3 $4 $5 $6 $7 $8 $9 X,Y pos of 4 corners*
0 Add a 4 corners polygon primitive as box body*
4,1,4,$2,$3,$4,$5,$6,$7,$8,$9,$2,$3,0*
0 Add four circle primitives for the rounded corners*
1,1,$1+$1,$2,$3*
1,1,$1+$1,$4,$5*
1,1,$1+$1,$6,$7*
1,1,$1+$1,$8,$9*
0 Add four rect primitives between the rounded corners*
20,1,$1+$1,$2,$3,$4,$5,0*
20,1,$1+$1,$4,$5,$6,$7,0*
20,1,$1+$1,$6,$7,$8,$9,0*
20,1,$1+$1,$8,$9,$2,$3,0*%
G04 Aperture macros list end*
%ADD10R,1.700000X1.700000*%
%ADD11O,1.700000X1.700000*%
%ADD12R,1.600000X1.600000*%
%ADD13C,1.600000*%
%ADD14RoundRect,0.150000X0.825000X0.150000X-0.825000X0.150000X-0.825000X-0.150000X0.825000X-0.150000X0*%
%ADD15R,2.290000X3.000000*%
%ADD16RoundRect,0.100000X-0.637500X-0.100000X0.637500X-0.100000X0.637500X0.100000X-0.637500X0.100000X0*%
%ADD17RoundRect,0.250000X-0.350000X-0.450000X0.350000X-0.450000X0.350000X0.450000X-0.350000X0.450000X0*%
%ADD18RoundRect,0.250000X-0.450000X0.350000X-0.450000X-0.350000X0.450000X-0.350000X0.450000X0.350000X0*%
%ADD19RoundRect,0.250000X-0.475000X0.337500X-0.475000X-0.337500X0.475000X-0.337500X0.475000X0.337500X0*%
%ADD20RoundRect,0.250000X-1.000000X-0.900000X1.000000X-0.900000X1.000000X0.900000X-1.000000X0.900000X0*%
%ADD21RoundRect,0.250000X0.475000X-0.337500X0.475000X0.337500X-0.475000X0.337500X-0.475000X-0.337500X0*%
%ADD22RoundRect,0.250000X1.000000X0.900000X-1.000000X0.900000X-1.000000X-0.900000X1.000000X-0.900000X0*%
%ADD23C,5.600000*%
%ADD24RoundRect,0.150000X-0.825000X-0.150000X0.825000X-0.150000X0.825000X0.150000X-0.825000X0.150000X0*%
%ADD25RoundRect,0.250000X0.350000X0.450000X-0.350000X0.450000X-0.350000X-0.450000X0.350000X-0.450000X0*%
%ADD26C,2.600000*%
%ADD27RoundRect,0.250000X-0.750000X-1.550000X0.750000X-1.550000X0.750000X1.550000X-0.750000X1.550000X0*%
%ADD28O,2.000000X3.600000*%
%ADD29R,2.000000X2.000000*%
%ADD30RoundRect,0.150000X0.587500X0.150000X-0.587500X0.150000X-0.587500X-0.150000X0.587500X-0.150000X0*%
%ADD31RoundRect,0.250000X0.450000X-0.350000X0.450000X0.350000X-0.450000X0.350000X-0.450000X-0.350000X0*%
%ADD32O,1.200000X2.000000*%
%ADD33RoundRect,0.150000X-0.587500X-0.150000X0.587500X-0.150000X0.587500X0.150000X-0.587500X0.150000X0*%
%ADD34R,1.550000X2.200000*%
%ADD35RoundRect,0.250000X-0.337500X-0.475000X0.337500X-0.475000X0.337500X0.475000X-0.337500X0.475000X0*%
%ADD36R,1.350000X1.350000*%
%ADD37O,1.350000X1.350000*%
%ADD38RoundRect,0.250001X-0.949999X-0.949999X0.949999X-0.949999X0.949999X0.949999X-0.949999X0.949999X0*%
%ADD39C,2.400000*%
G04 APERTURE END LIST*
D10*
X34100000Y-175500000D03*
D11*
X34100000Y-172960000D03*
D12*
X90400000Y-148805113D03*
D13*
X90400000Y-146305113D03*
D14*
X48425000Y-124622000D03*
X48425000Y-123352000D03*
X48425000Y-122082000D03*
X48425000Y-120812000D03*
X43475000Y-120812000D03*
X43475000Y-122082000D03*
X43475000Y-123352000D03*
X43475000Y-124622000D03*
D15*
X45950000Y-122717000D03*
D16*
X67135000Y-94165500D03*
X67135000Y-94815500D03*
X67135000Y-95465500D03*
X67135000Y-96115500D03*
X67135000Y-96765500D03*
X67135000Y-97415500D03*
X67135000Y-98065500D03*
X67135000Y-98715500D03*
X72860000Y-98715500D03*
X72860000Y-98065500D03*
X72860000Y-97415500D03*
X72860000Y-96765500D03*
X72860000Y-96115500D03*
X72860000Y-95465500D03*
X72860000Y-94815500D03*
X72860000Y-94165500D03*
D17*
X41840000Y-103744501D03*
X43840000Y-103744501D03*
X91200000Y-91144501D03*
X93200000Y-91144501D03*
D18*
X62152500Y-91878000D03*
X62152500Y-93878000D03*
D19*
X58360000Y-172762500D03*
X58360000Y-174837500D03*
D20*
X33700000Y-112554501D03*
X38000000Y-112554501D03*
D10*
X33950000Y-127794501D03*
D11*
X33950000Y-125254501D03*
X36490000Y-127794501D03*
X36490000Y-125254501D03*
D12*
X109100000Y-166200000D03*
D13*
X111600000Y-166200000D03*
D10*
X70540000Y-175075000D03*
D11*
X70540000Y-172535000D03*
D12*
X113000000Y-104000000D03*
D13*
X116500000Y-104000000D03*
D10*
X62420000Y-175000000D03*
D11*
X62420000Y-172460000D03*
D21*
X99700000Y-96656228D03*
X99700000Y-94581228D03*
D17*
X41840000Y-129064501D03*
X43840000Y-129064501D03*
X91195000Y-116465000D03*
X93195000Y-116465000D03*
D22*
X106295000Y-132975000D03*
X101995000Y-132975000D03*
D23*
X116500000Y-176500000D03*
D21*
X65272500Y-106108500D03*
X65272500Y-104033500D03*
D24*
X91570000Y-120907501D03*
X91570000Y-122177501D03*
X91570000Y-123447501D03*
X91570000Y-124717501D03*
X96520000Y-124717501D03*
X96520000Y-123447501D03*
X96520000Y-122177501D03*
X96520000Y-120907501D03*
D15*
X94045000Y-122812501D03*
D20*
X33700000Y-87234501D03*
X38000000Y-87234501D03*
D25*
X48800000Y-93584501D03*
X46800000Y-93584501D03*
D26*
X97500000Y-146100000D03*
X97500000Y-143100000D03*
D12*
X80800000Y-89559500D03*
D13*
X80800000Y-87059500D03*
D25*
X48800000Y-103744501D03*
X46800000Y-103744501D03*
X48800000Y-129064501D03*
X46800000Y-129064501D03*
D12*
X80800000Y-103800000D03*
D13*
X80800000Y-101300000D03*
D21*
X65272500Y-91868000D03*
X65272500Y-89793000D03*
X74722500Y-91868000D03*
X74722500Y-89793000D03*
D27*
X103600000Y-173700000D03*
D28*
X108600000Y-173700000D03*
D12*
X113000000Y-93000000D03*
D13*
X116500000Y-93000000D03*
D21*
X40300000Y-96497774D03*
X40300000Y-94422774D03*
D25*
X48800000Y-101204501D03*
X46800000Y-101204501D03*
X98155000Y-129165000D03*
X96155000Y-129165000D03*
D29*
X97695000Y-163485001D03*
X87195000Y-163485001D03*
X87195000Y-151985001D03*
X97695000Y-151985001D03*
D25*
X48800000Y-118904501D03*
X46800000Y-118904501D03*
D10*
X33950000Y-94854501D03*
D11*
X33950000Y-92314501D03*
X36490000Y-94854501D03*
X36490000Y-92314501D03*
D18*
X62152500Y-106108500D03*
X62152500Y-108108500D03*
D21*
X40300000Y-121817774D03*
X40300000Y-119742774D03*
D17*
X91200000Y-93684501D03*
X93200000Y-93684501D03*
D10*
X106050000Y-92414501D03*
D11*
X106050000Y-94954501D03*
X103510000Y-92414501D03*
X103510000Y-94954501D03*
D17*
X106900000Y-140000000D03*
X108900000Y-140000000D03*
D21*
X99695000Y-121976727D03*
X99695000Y-119901727D03*
D18*
X77842500Y-106108500D03*
X77842500Y-108108500D03*
X88950000Y-91784501D03*
X88950000Y-93784501D03*
D12*
X27000000Y-126000000D03*
D13*
X23500000Y-126000000D03*
D21*
X68422500Y-91868000D03*
X68422500Y-89793000D03*
D10*
X54300000Y-175000000D03*
D11*
X54300000Y-172460000D03*
D17*
X91195000Y-129165000D03*
X93195000Y-129165000D03*
D25*
X48800000Y-116364501D03*
X46800000Y-116364501D03*
D23*
X23500000Y-83500000D03*
D30*
X43445000Y-88184501D03*
X43445000Y-86284501D03*
X41570000Y-87234501D03*
X43445000Y-113504501D03*
X43445000Y-111604501D03*
X41570000Y-112554501D03*
X43445000Y-133824501D03*
X43445000Y-131924501D03*
X41570000Y-132874501D03*
D10*
X106050000Y-100034501D03*
D11*
X106050000Y-102574501D03*
X103510000Y-100034501D03*
X103510000Y-102574501D03*
D31*
X51050000Y-128424501D03*
X51050000Y-126424501D03*
D12*
X102000000Y-160205113D03*
D13*
X102000000Y-157705113D03*
D25*
X98160000Y-91144501D03*
X96160000Y-91144501D03*
D19*
X74600000Y-172762500D03*
X74600000Y-174837500D03*
D32*
X31400000Y-167500000D03*
X33940000Y-167500000D03*
X36480000Y-167500000D03*
X39020000Y-167500000D03*
X41560000Y-167500000D03*
X44100000Y-167500000D03*
X46640000Y-167500000D03*
X49180000Y-167500000D03*
X51720000Y-167500000D03*
X54260000Y-167500000D03*
X56800000Y-167500000D03*
X59340000Y-167500000D03*
X61880000Y-167500000D03*
X64420000Y-167500000D03*
X66960000Y-167500000D03*
X69500000Y-167500000D03*
X72040000Y-167500000D03*
X74580000Y-167500000D03*
X77120000Y-167500000D03*
X77120000Y-142100000D03*
X74580000Y-142100000D03*
X72040000Y-142100000D03*
X69500000Y-142100000D03*
X66960000Y-142100000D03*
X64420000Y-142100000D03*
X61880000Y-142100000D03*
X59340000Y-142100000D03*
X56800000Y-142100000D03*
X54260000Y-142100000D03*
X51720000Y-142100000D03*
X49180000Y-142100000D03*
X46640000Y-142100000D03*
X44100000Y-142100000D03*
X41560000Y-142100000D03*
X39020000Y-142100000D03*
X36480000Y-142100000D03*
X33940000Y-142100000D03*
X31400000Y-142100000D03*
X79660000Y-167500000D03*
X79660000Y-142100000D03*
D10*
X33950000Y-120174501D03*
D11*
X33950000Y-117634501D03*
X36490000Y-120174501D03*
X36490000Y-117634501D03*
D17*
X41840000Y-116364501D03*
X43840000Y-116364501D03*
X91195000Y-126625000D03*
X93195000Y-126625000D03*
D21*
X71572500Y-91868000D03*
X71572500Y-89793000D03*
D33*
X96550000Y-111705000D03*
X96550000Y-113605000D03*
X98425000Y-112655000D03*
X96555000Y-106704501D03*
X96555000Y-108604501D03*
X98430000Y-107654501D03*
D34*
X104525000Y-140000000D03*
X101675000Y-140000000D03*
D25*
X75300000Y-115600000D03*
X73300000Y-115600000D03*
D10*
X106045000Y-117735000D03*
D11*
X106045000Y-120275000D03*
X103505000Y-117735000D03*
X103505000Y-120275000D03*
D12*
X27000000Y-115000000D03*
D13*
X23500000Y-115000000D03*
D25*
X98160000Y-103844501D03*
X96160000Y-103844501D03*
X98155000Y-116465000D03*
X96155000Y-116465000D03*
D31*
X51050000Y-119004501D03*
X51050000Y-117004501D03*
D20*
X33700000Y-107554501D03*
X38000000Y-107554501D03*
D21*
X71572500Y-106108500D03*
X71572500Y-104033500D03*
D18*
X88950000Y-101204501D03*
X88950000Y-103204501D03*
D19*
X40300000Y-98232774D03*
X40300000Y-100307774D03*
D22*
X106300000Y-87334501D03*
X102000000Y-87334501D03*
D16*
X67135000Y-108406000D03*
X67135000Y-109056000D03*
X67135000Y-109706000D03*
X67135000Y-110356000D03*
X67135000Y-111006000D03*
X67135000Y-111656000D03*
X67135000Y-112306000D03*
X67135000Y-112956000D03*
X72860000Y-112956000D03*
X72860000Y-112306000D03*
X72860000Y-111656000D03*
X72860000Y-111006000D03*
X72860000Y-110356000D03*
X72860000Y-109706000D03*
X72860000Y-109056000D03*
X72860000Y-108406000D03*
D12*
X27000000Y-104000000D03*
D13*
X23500000Y-104000000D03*
D19*
X66480000Y-172762500D03*
X66480000Y-174837500D03*
D17*
X106900000Y-143400000D03*
X108900000Y-143400000D03*
D22*
X106300000Y-107654501D03*
X102000000Y-107654501D03*
D33*
X96555000Y-86384501D03*
X96555000Y-88284501D03*
X98430000Y-87334501D03*
D31*
X51050000Y-93684501D03*
X51050000Y-91684501D03*
D30*
X43445000Y-108504501D03*
X43445000Y-106604501D03*
X41570000Y-107554501D03*
D23*
X116500000Y-83500000D03*
D12*
X113000000Y-126000000D03*
D13*
X116500000Y-126000000D03*
D14*
X48425000Y-99302000D03*
X48425000Y-98032000D03*
X48425000Y-96762000D03*
X48425000Y-95492000D03*
X43475000Y-95492000D03*
X43475000Y-96762000D03*
X43475000Y-98032000D03*
X43475000Y-99302000D03*
D15*
X45950000Y-97397000D03*
D24*
X91575000Y-95587002D03*
X91575000Y-96857002D03*
X91575000Y-98127002D03*
X91575000Y-99397002D03*
X96525000Y-99397002D03*
X96525000Y-98127002D03*
X96525000Y-96857002D03*
X96525000Y-95587002D03*
D15*
X94050000Y-97492002D03*
D12*
X90300000Y-140300000D03*
D13*
X90300000Y-142800000D03*
D26*
X110400000Y-159000000D03*
X107400000Y-159000000D03*
D25*
X48800000Y-126524501D03*
X46800000Y-126524501D03*
D35*
X64925000Y-118600000D03*
X67000000Y-118600000D03*
D21*
X74722500Y-106108500D03*
X74722500Y-104033500D03*
D12*
X113000000Y-115000000D03*
D13*
X116500000Y-115000000D03*
D25*
X48800000Y-91044501D03*
X46800000Y-91044501D03*
D19*
X40300000Y-123552774D03*
X40300000Y-125627774D03*
D22*
X106295000Y-112655000D03*
X101995000Y-112655000D03*
D21*
X68422500Y-106108500D03*
X68422500Y-104033500D03*
D17*
X91195000Y-119005000D03*
X93195000Y-119005000D03*
D19*
X99700000Y-98391228D03*
X99700000Y-100466228D03*
D18*
X77842500Y-91868000D03*
X77842500Y-93868000D03*
X88945000Y-117105000D03*
X88945000Y-119105000D03*
D36*
X65000000Y-124000000D03*
D37*
X67000000Y-124000000D03*
X69000000Y-124000000D03*
X71000000Y-124000000D03*
D17*
X64700000Y-115600000D03*
X66700000Y-115600000D03*
X91200000Y-103844501D03*
X93200000Y-103844501D03*
D33*
X96550000Y-132025000D03*
X96550000Y-133925000D03*
X98425000Y-132975000D03*
D10*
X33950000Y-102469501D03*
D11*
X33950000Y-99929501D03*
X36490000Y-102469501D03*
X36490000Y-99929501D03*
D19*
X99695000Y-123711727D03*
X99695000Y-125786727D03*
D23*
X23500000Y-176500000D03*
D31*
X51050000Y-103104501D03*
X51050000Y-101104501D03*
D18*
X88945000Y-126525000D03*
X88945000Y-128525000D03*
D26*
X101900000Y-166200000D03*
X104900000Y-166200000D03*
D12*
X27000000Y-93000000D03*
D13*
X23500000Y-93000000D03*
D10*
X106045000Y-125355000D03*
D11*
X106045000Y-127895000D03*
X103505000Y-125355000D03*
X103505000Y-127895000D03*
D12*
X102247349Y-151100000D03*
D13*
X105747349Y-151100000D03*
D17*
X41840000Y-91044501D03*
X43840000Y-91044501D03*
D12*
X26900000Y-167500000D03*
D13*
X24400000Y-167500000D03*
D20*
X33700000Y-132874501D03*
X38000000Y-132874501D03*
D38*
X39940000Y-174600000D03*
D39*
X43900000Y-174600000D03*
X47860000Y-174600000D03*
D17*
X91200000Y-101304501D03*
X93200000Y-101304501D03*
D12*
X94400000Y-172547349D03*
D13*
X94400000Y-176047349D03*
M02*
